<svg version="1.1" id="Layer_1" xmlns="http://www.w3.org/2000/svg" xmlns:xlink="http://www.w3.org/1999/xlink" x="0px" y="0px"
	 width="100%" viewBox="0 0 1024 1024" enable-background="new 0 0 1024 1024" xml:space="preserve">
<path fill="#000000" opacity="1.000000" stroke="none" 
	d="
M472.954132,716.867065 
	C477.314056,715.171021 481.303589,713.585205 485.293091,711.999390 
	C485.209290,711.750610 485.125458,711.501831 485.041656,711.253052 
	C471.274719,715.411194 457.485107,719.496033 443.745087,723.741272 
	C401.258820,736.868042 358.335754,748.243042 314.324158,754.955872 
	C287.439667,759.056519 260.369232,760.837219 233.193848,758.227234 
	C222.738022,757.223022 212.437637,755.291870 203.146759,749.883240 
	C187.353256,740.689209 182.040680,728.655823 185.999252,710.818176 
	C187.817780,702.623779 190.892380,694.945801 195.523285,687.902100 
	C196.503372,686.411316 197.873428,685.064392 198.055908,682.723022 
	C194.100677,680.913025 190.047699,679.077271 186.010635,677.207153 
	C174.742035,671.987366 165.175400,664.612915 158.216049,654.260315 
	C148.793869,640.243958 148.934158,624.836121 153.875885,609.646912 
	C156.377991,601.956299 155.860748,597.198853 149.997070,591.049072 
	C125.854431,565.728210 124.539108,536.159790 136.938309,505.213623 
	C147.687714,478.385010 167.151260,458.003693 188.500122,439.301056 
	C193.255432,435.135162 198.267441,431.231445 203.396408,427.533112 
	C207.252319,424.752686 208.666931,421.482147 208.827332,416.632660 
	C210.310410,371.794525 221.097137,329.743225 247.578262,292.739258 
	C263.871918,269.971008 284.252228,251.821152 310.108948,240.502914 
	C329.980286,231.804642 350.849518,227.144592 372.597076,226.651993 
	C390.618225,226.243805 408.590393,226.819168 426.235840,230.780228 
	C431.425842,231.945251 434.828339,229.597260 438.517181,227.044830 
	C453.075714,216.971283 468.345520,208.151962 484.593781,201.085022 
	C503.005066,193.077286 522.055481,187.049332 542.044006,184.882462 
	C578.630005,180.916351 611.647949,190.198730 640.833313,212.802719 
	C656.266235,224.755417 669.175903,239.050323 679.929932,255.252869 
	C682.945740,259.796722 686.314575,262.225067 691.884888,262.580383 
	C732.930664,265.198608 763.582642,285.833221 787.331116,318.210693 
	C790.976318,323.180359 794.556580,328.199036 798.085022,333.252228 
	C799.393005,335.125519 800.702454,337.085205 800.497986,339.429688 
	C798.825439,340.490570 797.292114,340.166992 795.825256,340.086151 
	C765.844788,338.434052 736.402527,342.357727 707.190735,348.634583 
	C699.712402,350.241486 692.241943,351.896759 684.811890,353.709991 
	C682.504456,354.273071 680.689453,354.206329 678.866211,352.491852 
	C648.144287,323.603607 612.311584,303.497070 572.629761,289.558929 
	C538.951538,277.729584 504.862671,267.643677 469.654938,261.654297 
	C459.738647,259.967346 449.655853,259.258850 438.907806,258.015808 
	C447.173767,251.195557 455.640900,246.086349 464.192322,241.134277 
	C465.322052,240.480072 467.163055,240.676193 468.581635,240.953751 
	C508.667786,248.797058 548.197083,258.563660 585.577148,275.538788 
	C590.739319,277.883057 595.442139,278.726257 601.280151,276.959106 
	C618.780579,271.661926 636.406982,266.653046 654.659851,264.441498 
	C655.781982,264.305511 656.848145,263.707367 657.796936,263.374542 
	C658.441956,262.085022 657.822510,261.238861 657.225525,260.461700 
	C639.770996,237.740891 618.243347,220.454514 590.906128,211.004959 
	C566.098328,202.429764 541.378418,204.541931 516.844727,212.140808 
	C482.930817,222.645035 453.214905,240.705597 425.956940,263.141418 
	C390.788483,292.088257 362.526825,326.721924 340.627716,366.590149 
	C336.149323,374.743225 332.824646,383.435242 329.684814,392.227722 
	C344.884125,369.430450 354.954315,342.257233 383.130249,331.096893 
	C381.727570,328.080902 378.726685,328.984222 376.539490,325.750671 
	C401.924713,326.832275 425.353546,332.246002 448.406738,338.146759 
	C449.042419,340.950531 447.477264,342.029236 446.627869,343.361298 
	C440.939056,352.282837 437.284943,361.797028 438.310364,372.583527 
	C438.664124,376.304321 437.293274,378.232147 433.838593,379.755676 
	C390.699860,398.780243 350.306793,422.623566 311.825684,449.774078 
	C306.656708,453.421082 301.759064,457.452148 296.597961,461.110992 
	C293.815308,463.083649 292.241882,465.343262 292.090637,468.900452 
	C291.924042,472.817627 291.117615,476.707611 290.598572,480.545410 
	C292.976257,481.537201 294.101105,479.993225 295.321564,479.046783 
	C339.494568,444.790497 387.347443,416.645233 437.883209,392.910126 
	C441.672302,391.130493 443.511169,392.364410 445.723755,395.290314 
	C464.096405,419.585999 495.860687,421.709473 517.000671,400.106415 
	C522.895691,394.082275 526.062012,386.637421 527.650574,378.453064 
	C528.120178,376.033752 528.620178,373.620361 529.095703,371.256470 
	C538.581299,371.902344 576.518311,388.147949 582.383606,394.168030 
	C578.842407,395.823578 575.464661,397.453369 572.046265,398.993164 
	C530.388733,417.757446 489.967316,438.809601 451.199646,463.066437 
	C419.808899,482.707642 389.520966,503.856934 360.494720,526.829041 
	C357.232422,529.410950 354.134186,532.199219 350.910614,534.831421 
	C348.099854,537.126648 348.004181,539.526978 350.624969,541.925964 
	C352.965973,544.068909 354.542297,548.423096 359.023651,544.857910 
	C365.277588,539.882507 371.607391,535.000183 377.972656,530.167419 
	C437.116882,485.263397 500.408173,447.246063 567.794678,416.058563 
	C577.011963,411.792694 586.442078,407.988220 595.691223,403.788605 
	C598.451782,402.535187 600.670776,402.752960 603.133179,404.402283 
	C663.651733,444.937317 706.764038,499.072601 731.075684,567.932617 
	C731.993835,570.533203 732.188782,572.934143 731.173096,575.644287 
	C721.939575,600.282776 708.191528,622.152100 690.871399,641.854309 
	C690.349426,642.448059 689.631104,642.869141 688.637329,643.664429 
	C686.574890,639.658203 686.622314,635.469849 685.691040,631.566589 
	C679.037476,603.679565 663.852905,582.839355 636.392090,572.436829 
	C622.412476,567.141113 608.069641,567.081482 593.712952,571.226196 
	C593.073669,571.410706 592.414429,571.525208 591.772034,571.700073 
	C578.277283,575.372437 575.497925,573.372742 574.745422,559.095825 
	C574.298096,550.609192 574.653381,541.766907 571.530334,533.943726 
	C566.226746,520.658203 564.610291,507.319305 566.679260,493.305084 
	C567.190918,489.839539 566.391785,486.333740 565.587158,482.914948 
	C564.781921,479.493866 563.309509,478.419800 560.011902,480.754669 
	C552.408875,486.138092 545.245422,492.060944 538.480530,498.107574 
	C535.717163,497.693512 535.121338,495.518250 533.925781,494.026642 
	C529.030090,487.918549 524.261597,481.707367 519.308289,475.646973 
	C516.936523,472.745117 515.000549,473.012482 513.737732,476.816589 
	C511.836212,482.544952 511.192474,488.503784 510.382568,494.417480 
	C509.897369,497.960022 508.540131,500.117737 504.883759,501.111511 
	C492.646606,504.437439 484.244385,511.537170 482.228912,524.792603 
	C481.563324,529.169922 477.881042,531.388000 474.650085,533.665222 
	C470.866119,536.332153 469.084961,539.179138 471.745178,543.693970 
	C472.736298,545.375977 473.319305,547.406433 473.649017,549.352478 
	C475.633789,561.067627 483.402130,566.064087 494.348175,567.639038 
	C500.689575,568.551514 501.184357,569.454224 499.646606,575.887878 
	C498.088104,582.408447 494.950623,588.333862 492.539459,594.530090 
	C483.062653,618.883728 486.520020,641.492920 501.400970,662.652161 
	C509.299438,673.882996 516.464905,685.470581 518.747131,699.351379 
	C519.069702,701.313293 519.229126,703.308716 519.352905,705.295593 
	C520.103821,717.346558 520.114746,717.408325 508.366150,721.579468 
	C490.796082,727.817444 473.181641,733.930481 455.613892,740.174988 
	C453.135742,741.055908 450.899261,741.212280 448.382996,740.232544 
	C442.411682,737.907593 436.346527,735.823730 430.310852,733.059631 
	C444.533508,727.675049 458.645691,722.553223 472.954132,716.867065 
M239.168030,494.418945 
	C239.607422,496.307800 239.627029,498.414124 241.847351,499.561371 
	C242.414444,499.272949 243.074829,499.074402 243.563034,498.668732 
	C256.244690,488.129944 268.946472,477.615875 282.462463,468.143890 
	C284.417938,466.773438 285.279755,464.919067 285.592682,462.708862 
	C289.209961,437.159424 297.243042,412.897827 306.624084,388.968811 
	C324.805481,342.592133 352.743164,302.857574 387.953888,267.950165 
	C394.303101,261.655609 401.287781,256.069336 408.229706,249.857559 
	C407.140411,249.295044 406.607422,248.888962 406.010529,248.741364 
	C405.050110,248.503876 404.050812,248.405167 403.062256,248.302872 
	C387.087311,246.649689 371.169739,246.947479 355.267548,249.349869 
	C322.064697,254.365982 294.774445,269.746826 273.087433,295.378510 
	C248.883591,323.984894 237.666016,357.882141 232.505402,394.230255 
	C231.959076,398.078186 229.995346,402.202881 232.361282,406.644348 
	C257.166534,390.865234 283.360565,378.564514 310.701813,368.110016 
	C307.958313,376.056763 304.611237,383.411346 301.455414,390.847076 
	C300.396759,393.341461 298.748810,394.662079 296.281067,395.769409 
	C274.670166,405.466888 253.784683,416.506012 234.066910,429.705780 
	C231.200882,431.624390 230.142746,433.748657 230.277710,437.092957 
	C231.051926,456.278534 234.230072,475.082825 239.168030,494.418945 
M420.086090,697.730408 
	C414.570068,698.972229 408.797424,699.555054 403.587646,701.583435 
	C389.719391,706.982849 380.974091,697.124084 370.600067,691.589722 
	C390.433685,685.764526 410.634094,682.187256 429.996857,675.429932 
	C429.135132,675.195129 428.316711,675.183838 427.526276,675.326904 
	C406.274353,679.172546 385.147247,683.665527 363.773376,686.892029 
	C342.373505,690.122498 320.951263,692.994141 299.293213,693.285461 
	C273.506439,693.632324 247.673187,694.317749 222.177277,689.143494 
	C219.996964,688.701111 218.354492,688.719910 217.194046,690.996887 
	C213.793350,697.669800 210.004623,704.180725 207.931595,711.429626 
	C205.304459,720.616089 208.545990,727.279602 217.205872,731.539246 
	C226.568863,736.144836 236.726959,737.083130 246.826706,737.548523 
	C275.550049,738.872070 303.949829,735.505127 332.122986,730.283875 
	C382.101593,721.021606 430.824310,707.028259 478.865662,690.573792 
	C484.199310,688.746948 489.593567,686.938232 495.329834,683.428040 
	C489.346100,682.971741 484.642700,684.167908 479.921906,684.965088 
	C460.072388,688.316956 440.521515,693.091492 420.086090,697.730408 
M306.627991,660.310547 
	C298.499359,662.424133 293.793671,658.156494 289.443298,651.938904 
	C281.899353,641.156982 274.165619,630.519409 267.445953,619.185730 
	C266.462128,617.526367 265.789429,615.517212 263.652252,614.625854 
	C260.582275,616.207336 258.687347,619.020203 256.633759,621.566101 
	C248.894119,631.160828 241.461914,640.990356 234.916153,651.456482 
	C233.757065,653.309814 232.703506,655.552063 230.060638,655.002258 
	C224.761307,653.899780 219.284241,653.492126 213.775955,651.374084 
	C217.445145,641.233032 224.774185,633.424744 229.706543,623.042969 
	C210.757156,621.931396 192.990250,618.991028 176.371033,611.641968 
	C170.879608,620.927612 172.462067,636.734131 179.471771,644.799866 
	C185.509811,651.747559 193.232376,656.214905 201.584305,659.836792 
	C224.516647,669.781311 248.858139,672.018372 273.374603,672.491699 
	C298.848145,672.983521 324.249084,671.228821 349.525635,667.803345 
	C382.185883,663.377197 414.454834,657.029175 446.282837,648.475952 
	C449.151550,647.705078 452.212616,647.118652 454.551880,644.900085 
	C448.523468,645.169861 442.590027,645.672607 436.707916,646.528198 
	C405.617249,651.050537 374.501648,655.323181 343.210968,658.296997 
	C335.761536,659.004944 329.862579,658.028381 326.106628,650.800171 
	C324.822083,648.328125 322.689575,646.301697 320.979889,644.044861 
	C305.912628,624.155029 292.875305,603.107178 285.289368,579.145569 
	C277.717285,555.227478 275.927826,530.564331 276.707092,505.633118 
	C276.782410,503.223816 276.717163,500.810089 276.717163,498.464569 
	C274.557495,498.290436 273.575745,499.318054 272.575928,500.111481 
	C265.142731,506.009857 257.817230,512.045715 250.322052,517.863342 
	C247.501709,520.052429 246.846405,522.336121 248.167908,525.647583 
	C251.682922,534.455627 254.766220,543.440735 258.434082,552.182190 
	C273.128937,587.203796 291.541534,620.109070 314.788300,650.228455 
	C316.784515,652.814819 318.611359,655.531921 320.792633,658.572632 
	C316.079132,659.996643 311.814636,660.109436 306.627991,660.310547 
M217.415161,498.978760 
	C212.904922,483.279327 211.433701,466.966217 208.634933,450.455750 
	C207.109161,451.299805 206.465485,451.531555 205.975189,451.945160 
	C189.849899,465.548096 175.285126,480.599884 164.445877,498.820404 
	C155.181122,514.394226 148.951706,530.887390 152.329803,549.562256 
	C154.373459,560.860046 159.787781,570.246643 168.335770,578.340454 
	C172.635681,572.353943 175.972870,566.410889 180.162506,561.027405 
	C191.853363,546.005249 204.894974,532.267822 218.995163,519.525513 
	C221.544876,517.221313 222.413086,515.130432 221.077682,511.749847 
	C219.557846,507.902466 218.726410,503.783142 217.415161,498.978760 
M672.384583,325.082703 
	C678.218689,332.205170 685.253540,333.477783 694.362793,331.896698 
	C715.835693,328.169769 737.565796,326.693512 759.401306,328.605164 
	C762.097107,328.841156 764.831299,328.637360 768.466614,328.637360 
	C757.356079,313.894196 744.776550,302.691925 729.605042,294.582947 
	C708.150879,283.115936 685.314941,280.285431 661.408875,284.033447 
	C648.880737,285.997620 636.463684,288.272125 623.621338,292.282532 
	C640.981934,302.083282 657.064087,312.393127 672.384583,325.082703 
M191.382095,580.859985 
	C189.301514,584.381836 186.508850,587.528076 185.376205,591.742676 
	C186.092102,592.216675 186.592499,592.642822 187.166107,592.913940 
	C204.423035,601.072449 222.996674,602.740601 241.649277,603.415710 
	C249.156006,603.687317 253.934357,594.827942 250.554260,588.168457 
	C246.031982,579.258423 241.782455,570.234680 237.901047,561.017761 
	C234.822739,553.707886 232.673965,545.978516 228.337128,538.241333 
	C213.883667,550.829407 202.595291,565.331970 191.382095,580.859985 
M305.172150,551.721558 
	C301.908478,556.450989 300.921967,561.707275 301.308228,567.371948 
	C302.132782,579.464722 312.827515,588.808777 325.866852,588.705322 
	C338.209564,588.607422 348.404480,579.065491 348.939087,567.110840 
	C349.422424,556.302795 343.127960,546.648804 333.166748,542.920288 
	C322.995209,539.113098 313.116486,542.058960 305.172150,551.721558 
M618.111084,484.646576 
	C623.429749,477.956696 624.009338,472.780975 620.091736,466.959534 
	C616.495422,461.615479 609.431885,458.957550 603.482239,460.865997 
	C597.719177,462.714600 594.324951,466.820740 593.407715,472.712311 
	C592.490112,478.605743 595.546387,484.611969 600.931641,487.249786 
	C606.806213,490.127258 612.511963,489.549225 618.111084,484.646576 
M398.455505,609.996521 
	C403.641602,614.384155 408.402435,615.117737 412.870483,612.217651 
	C416.964020,609.560791 419.275330,604.409485 418.093170,600.306641 
	C416.828247,595.916687 414.405212,592.409302 409.668304,591.434021 
	C404.710724,590.413330 400.455017,591.896362 397.425598,596.098877 
	C394.150238,600.642517 394.899963,605.106506 398.455505,609.996521 
z"/>
<path fill="#000000" opacity="1.000000" stroke="none" 
	d="
M613.355530,714.825073 
	C629.594849,704.374146 648.042542,698.711426 665.535278,691.019897 
	C698.638916,676.464355 731.457520,661.408508 762.913086,643.486084 
	C767.900024,640.644714 769.614929,637.208740 768.578735,631.708252 
	C766.823608,622.391785 765.870422,612.928894 763.554810,603.711060 
	C763.186951,602.246643 762.692810,600.834839 763.718323,599.415344 
	C767.592957,594.052429 771.444885,588.673157 775.806885,582.601868 
	C783.026123,596.370422 785.550232,610.945374 789.599426,625.339233 
	C794.829163,622.460754 798.669678,618.750000 802.699585,615.349548 
	C823.221375,598.033447 841.808533,579.067932 853.280762,554.263611 
	C860.277588,539.135498 862.547180,523.661804 855.326782,507.950562 
	C847.553162,491.035461 833.264160,481.004791 817.315979,472.192810 
	C814.741760,477.395172 814.450500,482.613251 813.057983,487.501770 
	C800.633789,531.117249 779.489807,570.336548 753.593323,607.298218 
	C742.207458,623.549011 730.298157,639.361206 717.911926,654.839844 
	C715.898865,657.355408 713.553955,659.311646 710.699585,660.861328 
	C704.024658,664.485291 697.477783,668.345276 690.003601,672.609131 
	C690.024414,663.585022 687.583496,656.234680 694.567932,648.333252 
	C726.251099,612.490356 752.999207,573.153564 773.810913,529.953003 
	C783.463257,509.916931 790.332825,488.911438 795.245728,467.232208 
	C795.996582,463.918884 795.171570,462.416046 791.983093,461.318146 
	C777.946045,456.484772 763.770630,452.321869 748.877258,451.178284 
	C745.212158,450.896851 742.787354,449.378723 741.618408,445.606171 
	C739.862183,439.938293 736.696777,434.749908 735.247803,428.330078 
	C744.349121,428.309357 752.767700,429.891541 761.196899,431.183411 
	C772.232239,432.874695 783.046936,435.597687 793.675476,438.982880 
	C797.533447,440.211639 799.430786,439.269684 799.628174,435.171997 
	C800.578369,415.438446 799.605713,395.920868 793.916748,376.807617 
	C792.466003,371.933472 790.293518,369.908051 784.853333,370.067322 
	C762.153992,370.731812 739.766724,373.671753 717.554382,378.181152 
	C707.203125,380.282623 702.585999,377.829651 698.133545,367.389954 
	C706.638916,363.893219 715.680054,362.492218 724.581360,360.836853 
	C747.548645,356.565643 770.737671,354.847076 794.118652,355.594635 
	C798.399414,355.731506 800.793884,356.760529 801.889526,361.286194 
	C803.277466,367.019287 805.949829,372.709381 811.046692,375.780029 
	C818.009094,379.974609 819.225769,386.482178 820.248657,393.366943 
	C822.758240,410.256775 823.044434,427.169586 820.413208,444.075867 
	C819.844849,447.727875 821.189514,449.622162 824.561035,451.415710 
	C840.962341,460.140594 856.830505,469.822357 867.908752,485.245392 
	C885.970764,510.391052 885.600342,537.026672 872.877808,564.155579 
	C861.123108,589.220703 842.971436,609.256409 822.283752,627.216309 
	C814.220337,634.216553 805.849365,640.827393 796.801514,646.486328 
	C792.694031,649.055298 790.967896,652.018494 791.242493,657.021729 
	C792.208984,674.632812 790.006165,691.942932 784.383972,708.676270 
	C767.176392,759.891541 732.234436,792.315369 680.119690,806.221069 
	C660.344910,811.497498 640.121704,813.122498 619.726929,812.232788 
	C614.206482,811.992004 609.988403,813.634827 605.672607,817.017517 
	C586.915771,831.718994 566.416565,843.427246 543.652832,850.747009 
	C504.659424,863.285522 465.984528,862.645691 427.912018,846.935486 
	C406.014893,837.899963 387.617798,823.665710 370.606049,807.479980 
	C370.043518,806.944885 369.674347,806.206482 368.967255,805.215576 
	C376.149689,802.456726 383.147980,800.499329 390.228760,798.834290 
	C393.035583,798.174255 394.853760,800.074036 396.789581,801.706482 
	C416.337738,818.191589 438.175262,830.196716 463.496735,835.068481 
	C496.731506,841.462708 528.405945,836.477051 558.539490,821.322632 
	C565.937561,817.602112 573.604004,814.262268 580.381042,808.175171 
	C550.366760,803.209961 521.479919,796.058105 493.921509,784.700745 
	C493.865662,782.424744 495.404938,782.609436 496.374512,782.320129 
	C503.069641,780.322327 509.950500,778.832642 516.461121,776.361389 
	C523.733337,773.600952 530.421692,774.294128 537.721191,776.517029 
	C561.326538,783.705627 585.541504,788.409546 610.117188,790.244568 
	C642.032227,792.627625 673.651978,790.549500 702.523499,774.989319 
	C738.076294,755.828186 759.605713,725.823669 767.629639,686.235046 
	C769.010742,679.420959 770.037537,672.510559 769.499634,664.412842 
	C705.475403,699.479431 638.903870,726.857971 569.880432,748.623901 
	C582.028564,736.839783 596.265137,727.819336 609.962524,717.041626 
	C611.425598,716.006531 612.390564,715.415771 613.355530,714.825073 
z"/>
<path fill="#000000" opacity="1.000000" stroke="none" 
	d="
M508.218262,331.765594 
	C494.424622,323.325317 480.307831,322.895142 465.757477,328.229675 
	C463.809235,328.943970 462.030151,329.252533 459.978058,328.467224 
	C444.382385,322.498657 428.296356,318.440063 411.727966,316.310059 
	C410.957031,316.210968 410.029846,316.330597 409.409058,314.340302 
	C448.250153,299.447723 488.287292,292.251740 529.759094,297.053131 
	C582.303528,303.136444 628.165833,324.598083 667.952759,360.129639 
	C664.605957,362.874146 661.069336,363.398163 657.873962,364.483673 
	C640.053589,370.537598 622.577332,377.461792 605.336426,384.979919 
	C602.146606,386.370880 599.658875,386.334778 596.523132,384.511414 
	C576.169739,372.676147 554.568176,363.522064 532.446655,355.589935 
	C528.465332,354.162354 525.547729,352.207733 523.572205,348.312164 
	C520.124634,341.513947 514.983093,336.083710 508.218262,331.765594 
z"/>
<path fill="#000000" opacity="1.000000" stroke="none" 
	d="
M613.505371,714.599121 
	C612.390564,715.415771 611.425598,716.006531 610.209473,716.826172 
	C592.173767,724.100891 574.483398,731.396606 556.586426,738.144165 
	C509.233490,755.997314 461.633270,773.166077 412.801117,786.619019 
	C377.827240,796.254028 342.523895,804.443787 306.497711,809.167603 
	C283.831146,812.139648 261.058685,813.155273 238.236130,812.182312 
	C228.601288,811.771606 219.056366,810.157654 209.805206,807.180786 
	C185.296951,799.294556 174.990158,780.973877 181.144806,756.003235 
	C181.972733,752.644226 182.059402,748.082886 184.885727,746.524597 
	C188.481491,744.542114 189.722458,750.058228 192.697418,751.276733 
	C194.206329,751.894836 195.416992,753.202515 196.871109,754.000488 
	C200.445404,755.961792 201.548035,758.269653 200.975067,762.809692 
	C199.944916,770.972473 202.716797,778.303101 212.525208,783.600952 
	C222.276718,788.868103 233.086349,790.224792 243.923386,790.611755 
	C286.138336,792.119019 327.496735,785.745422 368.413788,776.153320 
	C413.669098,765.544373 457.965942,751.658691 501.716125,736.010254 
	C534.163513,724.404724 566.369934,712.158142 598.300659,699.200195 
	C601.987976,697.703735 604.347839,697.751282 606.466553,701.532715 
	C608.408325,704.998169 610.965942,708.129883 613.374939,711.315857 
	C614.185303,712.387634 614.625549,713.251465 613.505371,714.599121 
z"/>
<path fill="#000000" opacity="1.000000" stroke="none" 
	d="
M716.051086,500.910461 
	C690.322937,459.029175 657.368042,424.453583 616.903198,396.468048 
	C621.523743,391.944061 627.248535,390.911987 632.367249,389.000946 
	C647.329834,383.414948 662.499390,378.385651 677.535950,372.993622 
	C680.532593,371.919067 682.457581,372.655304 684.532959,374.901550 
	C713.825439,406.605896 731.703125,443.929474 739.089905,486.297760 
	C740.858765,496.443420 741.209473,506.827301 741.009521,517.147156 
	C740.918945,521.824219 741.899841,525.951477 744.201294,529.984863 
	C747.417908,535.622375 750.032043,541.621643 753.480286,547.103699 
	C756.764709,552.325317 757.257629,557.033875 753.696777,562.260437 
	C752.238770,564.400391 751.575500,567.081787 748.748596,569.183105 
	C738.515686,546.050293 729.508484,522.592957 716.051086,500.910461 
z"/>
<path fill="#000000" opacity="1.000000" stroke="none" 
	d="
M463.796143,333.616333 
	C485.279236,322.847321 506.340363,330.654541 517.516541,345.987946 
	C531.721619,365.476959 526.189880,392.805786 505.474579,405.442108 
	C476.688263,423.001740 446.483185,403.151184 442.241608,377.445526 
	C439.567230,361.237549 445.620605,343.641327 463.796143,333.616333 
M510.769684,365.965820 
	C508.622437,350.635956 494.025574,340.459930 478.278015,343.314636 
	C465.400574,345.649048 456.150635,356.772644 455.529053,370.671661 
	C455.030975,381.809174 464.598511,394.266113 476.079102,397.221497 
	C493.864990,401.799957 513.387512,387.992523 510.769684,365.965820 
z"/>
<path fill="#000000" opacity="1.000000" stroke="none" 
	d="
M853.135681,336.952423 
	C859.167725,345.727386 861.413757,354.763458 856.954468,364.509491 
	C852.318542,374.641510 844.033020,380.321045 833.115173,380.814148 
	C822.283691,381.303345 813.953430,375.875763 808.509766,366.568878 
	C802.929382,357.028320 803.605103,347.320068 809.652771,338.326050 
	C815.560425,329.540344 824.361816,326.214020 834.765198,327.292542 
	C841.978027,328.040283 848.153809,331.045441 853.135681,336.952423 
M820.908630,339.646545 
	C817.998413,337.228546 815.992737,338.539795 814.720703,341.399445 
	C813.807312,343.452789 814.365295,345.913391 816.663452,346.123474 
	C819.212830,346.356476 821.247314,344.585999 821.577515,341.672058 
	C821.629944,341.208893 821.397034,340.713409 820.908630,339.646545 
z"/>
<path fill="#000000" opacity="1.000000" stroke="none" 
	d="
M837.732178,444.710083 
	C841.663574,437.557037 845.943054,431.015991 848.758728,423.649445 
	C853.672241,410.794556 854.044495,397.691650 851.290527,384.423706 
	C850.694153,381.550476 851.113403,379.794952 853.479126,378.059479 
	C857.729004,374.941772 861.769226,371.538330 866.406067,367.849304 
	C870.926819,375.322418 873.258972,383.198792 874.195496,391.388611 
	C876.963989,415.600647 869.324646,436.873383 855.328979,456.294037 
	C853.472717,458.869904 851.997864,459.456116 849.310181,457.465759 
	C845.978455,454.998260 842.391602,452.863556 838.840454,450.707764 
	C836.347595,449.194458 835.680664,447.436035 837.732178,444.710083 
z"/>
<path fill="#000000" opacity="1.000000" stroke="none" 
	d="
M678.225708,728.111328 
	C683.611145,725.921692 688.645142,723.885864 693.702271,721.840759 
	C694.660889,723.835205 693.315002,724.710205 692.605774,725.665588 
	C679.356750,743.512451 664.544922,759.887207 647.119324,773.793091 
	C645.403809,775.162170 643.682373,776.537598 641.439636,776.722656 
	C627.877380,777.841858 614.356934,779.747314 600.098206,779.255005 
	C601.296997,777.147461 603.044800,776.671875 604.511230,775.903992 
	C623.838806,765.784058 640.869995,752.559570 656.443054,737.390564 
	C657.706482,736.159851 659.074463,735.444702 660.629272,734.853577 
	C666.381042,732.666565 672.126465,730.462708 678.225708,728.111328 
z"/>
<path fill="#000000" opacity="1.000000" stroke="none" 
	d="
M176.524673,382.119873 
	C165.794373,382.446838 158.159058,377.427399 155.341629,368.542267 
	C152.829453,360.619751 155.646774,352.332520 162.664963,347.459686 
	C169.492950,342.718964 176.616882,342.593384 183.752991,346.697998 
	C190.797791,350.750183 193.904144,357.090942 193.264175,365.054138 
	C192.647202,372.731018 188.397125,377.918335 181.198257,380.650024 
	C179.804108,381.179047 178.363144,381.584747 176.524673,382.119873 
M168.524948,354.229401 
	C168.622772,351.727325 167.328278,350.714813 165.113068,351.656677 
	C163.402512,352.383911 162.566299,354.196381 163.903381,355.749908 
	C165.506165,357.612091 167.136398,356.764282 168.524948,354.229401 
z"/>
<path fill="#000000" opacity="1.000000" stroke="none" 
	d="
M393.182800,126.026459 
	C400.658569,121.745750 406.997803,121.832794 412.004395,126.050659 
	C416.634003,129.950912 418.554779,136.725540 416.602966,142.269897 
	C414.551880,148.096237 409.576477,151.963791 403.665131,152.326920 
	C397.303345,152.717712 391.737244,149.725082 389.369934,144.443878 
	C386.303162,137.602173 387.635040,131.532623 393.182800,126.026459 
z"/>
<path fill="#000000" opacity="1.000000" stroke="none" 
	d="
M833.839844,673.792114 
	C831.664429,668.596802 832.815491,664.640747 837.093018,661.684814 
	C840.324646,659.451782 843.575745,659.430481 846.713013,661.993713 
	C851.423706,665.842590 852.053345,671.501526 848.213501,675.465759 
	C844.430359,679.371338 837.479736,679.620789 833.839844,673.792114 
z"/>
<path fill="#000000" opacity="1.000000" stroke="none" 
	d="
M348.719177,285.554352 
	C344.770203,285.718964 342.688171,283.805664 342.062225,280.467224 
	C341.598358,277.993195 342.576019,275.855713 344.804077,274.523254 
	C347.079010,273.162781 349.339691,273.572968 351.330963,275.112152 
	C354.838928,277.823669 353.760162,282.658173 348.719177,285.554352 
z"/>
<path fill="#000000" opacity="1.000000" stroke="none" 
	d="
M678.374634,296.580292 
	C676.681458,293.008728 675.164673,289.764404 673.198120,285.558136 
	C680.463928,285.558136 686.723572,285.569946 692.983032,285.548401 
	C694.267822,285.543976 695.286255,286.065887 695.932251,287.087311 
	C699.908081,293.373138 703.288391,299.918427 705.007324,307.840576 
	C699.180603,308.735657 693.823486,309.529541 688.477539,310.393066 
	C686.079956,310.780334 684.829590,309.604431 683.875183,307.581360 
	C682.179260,303.986267 680.333862,300.461670 678.374634,296.580292 
z"/>
</svg>