<svg xmlns="http://www.w3.org/2000/svg" version="1.0" preserveAspectRatio="xMidYMid meet" viewBox="1.6 14.31 941.22 844.33">
<metadata>
Created by potrace 1.16, written by Peter Selinger 2001-2019
</metadata>
<g transform="translate(0.000000,878.000000) scale(0.100000,-0.100000)" fill="#D22B2B" stroke="none">
<path d="M5103 8625 c-377 -57 -767 -217 -1158 -474 -123 -81 -133 -85 -185 -86 -30 0 -102 9 -160 19 -159 27 -573 34 -747 12 -609 -78 -1070 -368 -1416 -891 -167 -252 -302 -585 -366 -900 -34 -169 -47 -275 -61 -483 -7 -109 -14 -151 -27 -172 -10 -15 -58 -59 -108 -97 -372 -288 -647 -620 -770 -931 -69 -175 -88 -268 -89 -437 0 -111 4 -168 17 -220 25 -101 106 -258 177 -345 106 -130 112 -139 120 -176 7 -28 2 -60 -17 -133 -31 -116 -41 -265 -24 -353 19 -99 74 -199 158 -289 88 -93 172 -151 318 -219 l107 -50 -23 -37 c-81 -135 -121 -239 -138 -364 -39 -286 162 -484 544 -533 328 -43 727 -26 1180 50 472 78 891 183 1619 404 165 49 301 88 303 86 2 -2 -15 -11 -39 -19 -111 -40 -538 -204 -544 -209 -10 -11 240 -102 276 -101 19 0 208 62 420 136 313 111 389 141 409 164 23 26 23 32 18 128 -11 181 -55 299 -189 502 -155 236 -197 344 -205 534 -7 151 11 242 83 419 66 164 85 243 64 265 -8 7 -48 21 -89 29 -134 28 -196 83 -232 209 -9 34 -23 76 -30 94 -18 45 -5 72 61 125 43 34 58 54 68 88 27 92 45 132 76 173 37 49 118 100 193 122 65 19 79 38 93 135 21 136 44 210 66 210 7 0 61 -60 119 -132 58 -73 113 -141 120 -150 22 -27 36 -22 100 33 109 93 229 180 244 177 29 -6 40 -83 34 -238 -7 -170 4 -249 52 -398 41 -130 43 -141 54 -318 15 -230 30 -242 249 -187 91 23 128 27 247 27 126 0 148 -3 225 -28 371 -123 600 -401 680 -826 16 -82 23 -90 55 -60 67 62 235 291 320 435 101 171 195 386 195 445 0 62 -97 307 -216 544 -272 543 -674 1023 -1170 1397 -139 106 -233 168 -262 176 -61 15 -843 -359 -1345 -644 -553 -313 -1092 -674 -1607 -1076 -47 -37 -92 -67 -101 -67 -9 0 -33 18 -53 40 -29 33 -35 44 -26 59 32 61 537 443 950 718 581 387 1156 703 1863 1023 53 25 97 49 97 55 0 32 -331 190 -545 260 -102 33 -123 33 -131 -2 -42 -188 -80 -266 -174 -354 -109 -102 -249 -159 -391 -159 -159 0 -275 54 -407 186 -76 77 -99 94 -123 94 -33 0 -430 -194 -665 -325 -358 -200 -736 -443 -1030 -662 -133 -99 -174 -125 -174 -109 0 15 22 164 26 179 12 38 476 363 799 559 295 179 558 320 825 443 91 42 169 81 175 86 5 5 13 53 17 107 8 118 34 205 88 294 63 105 67 100 -130 148 -251 60 -565 110 -696 110 -46 0 -47 0 -29 -20 10 -11 24 -20 30 -20 7 0 17 -6 23 -13 8 -9 -6 -21 -61 -49 -169 -88 -280 -212 -467 -526 -40 -67 -75 -121 -77 -119 -7 7 73 183 127 279 203 359 433 663 729 958 175 175 277 264 456 400 453 344 947 559 1378 601 386 37 800 -120 1130 -431 89 -83 237 -252 237 -270 0 -12 -18 -17 -135 -35 -125 -19 -264 -53 -469 -112 -186 -53 -200 -53 -332 5 -351 154 -774 282 -1287 387 l-177 37 -58 -33 c-105 -59 -288 -187 -279 -195 2 -2 68 -10 148 -19 589 -64 1486 -324 2003 -582 270 -134 581 -343 785 -527 46 -42 93 -76 104 -76 11 0 110 20 221 45 421 93 675 126 1011 131 132 2 243 3 248 4 58 3 -195 353 -395 546 -259 249 -530 377 -887 419 -151 18 -164 26 -248 144 -311 437 -704 715 -1151 812 -127 27 -478 35 -619 14z m-1630 -801 c15 -9 5 -21 -75 -89 -322 -278 -680 -714 -903 -1100 -229 -397 -437 -955 -514 -1380 -11 -60 -23 -118 -26 -128 -4 -9 -66 -62 -139 -116 -72 -54 -189 -146 -261 -204 -101 -84 -132 -104 -141 -94 -15 15 -67 241 -93 407 -27 167 -42 365 -31 395 19 50 265 200 614 375 225 113 251 129 268 161 33 64 119 282 113 287 -3 3 -65 -18 -138 -48 -269 -108 -503 -223 -729 -357 -59 -34 -109 -63 -112 -63 -22 0 24 297 79 506 156 598 496 1052 960 1284 175 87 351 139 571 169 90 12 533 8 557 -5z m3653 -439 c334 -58 600 -223 853 -529 16 -18 11 -19 -179 -12 -220 8 -434 -4 -640 -35 -202 -31 -250 -22 -345 65 -79 72 -289 221 -454 322 l-152 92 128 31 c112 27 299 62 388 74 82 11 319 6 401 -8z m-6087 -2306 c30 -197 82 -433 115 -527 10 -28 13 -50 7 -60 -5 -10 -89 -98 -188 -197 -192 -193 -291 -310 -401 -473 l-70 -103 -46 53 c-26 29 -64 88 -86 130 -157 314 -49 689 321 1108 87 98 300 293 310 282 3 -4 20 -100 38 -213z m5024 87 c43 -17 93 -76 108 -125 10 -35 9 -45 -13 -93 -28 -60 -61 -89 -124 -108 -73 -22 -157 18 -193 93 -26 53 -26 90 -2 142 41 89 136 128 224 91z m-4213 -618 c0 -607 113 -1006 413 -1458 38 -58 97 -141 131 -185 34 -44 72 -96 84 -116 51 -84 101 -94 342 -69 248 26 469 53 803 100 316 45 441 57 416 41 -27 -17 -445 -118 -687 -165 -386 -76 -719 -122 -1054 -146 -186 -13 -567 -13 -723 0 -535 46 -914 217 -985 446 -11 36 -20 92 -20 123 0 63 25 161 41 161 5 0 54 -15 107 -34 120 -42 267 -72 420 -87 65 -7 119 -13 121 -15 2 -2 -28 -54 -67 -116 -73 -118 -122 -208 -122 -226 0 -20 200 -62 233 -49 9 3 44 48 78 99 74 110 229 316 276 366 40 42 45 40 109 -67 57 -94 253 -377 286 -412 48 -52 74 -62 151 -61 108 2 207 18 207 33 0 6 -49 76 -108 157 -314 426 -537 834 -733 1345 -38 98 -69 186 -69 196 0 9 15 31 33 48 51 48 298 243 308 243 5 0 9 -69 9 -152z m-515 -538 c32 -80 91 -215 131 -300 41 -86 74 -169 74 -185 0 -43 -35 -94 -76 -111 -30 -13 -57 -13 -172 -4 -150 12 -278 31 -363 56 -88 25 -191 67 -196 80 -17 44 291 445 467 608 l53 49 12 -24 c8 -14 39 -90 70 -169z m1243 130 c104 -45 176 -156 176 -270 0 -114 -53 -198 -156 -249 -181 -91 -405 27 -425 224 -11 109 33 204 123 266 92 63 181 72 282 29z m980 -617 c36 -22 62 -73 62 -122 0 -37 -6 -49 -38 -82 -49 -48 -80 -56 -137 -34 -105 40 -126 170 -38 233 48 34 103 36 151 5z m92 -1059 c-25 -8 -168 -46 -318 -84 -151 -39 -281 -74 -289 -79 -13 -7 -4 -16 43 -46 165 -107 251 -127 376 -87 35 12 108 30 163 41 55 11 200 43 321 70 274 62 534 111 582 110 l37 -1 -50 -23 c-76 -36 -567 -197 -860 -281 -932 -269 -1714 -395 -2210 -355 -334 26 -481 123 -445 294 16 78 124 297 147 297 10 0 79 -10 153 -21 114 -18 194 -22 522 -26 242 -3 444 -1 540 6 285 21 694 82 1118 165 185 36 244 43 170 20z"/>
<path d="M2690 7500 c-12 -12 -20 -33 -20 -55 0 -72 86 -104 129 -49 44 56 14 124 -54 124 -22 0 -43 -8 -55 -20z"/>
<path d="M6816 7358 c4 -13 37 -84 75 -159 44 -88 74 -138 86 -141 20 -5 229 25 238 34 9 9 -45 149 -83 215 -20 35 -44 64 -56 67 -12 3 -76 6 -144 6 -123 0 -123 0 -116 -22z"/>
<path d="M4440 7239 c-145 -14 -331 -46 -470 -80 -141 -35 -460 -138 -460 -149 0 -17 29 -28 105 -39 124 -19 309 -65 442 -110 l121 -41 89 26 c265 78 516 -13 658 -241 24 -39 57 -78 74 -88 16 -9 87 -39 158 -66 236 -89 427 -176 612 -276 65 -36 131 -65 146 -65 14 0 67 18 118 39 176 75 395 160 543 211 149 52 182 69 170 89 -16 26 -273 223 -396 304 -237 155 -565 306 -832 381 -122 35 -302 72 -443 91 -143 20 -501 28 -635 14z"/>
<path d="M8725 6850 c-102 -15 -193 -89 -243 -198 -72 -158 8 -361 173 -443 54 -27 74 -31 140 -31 141 1 243 58 303 170 62 117 62 216 -1 336 -66 125 -211 190 -372 166z"/>
<path d="M4365 6829 c-207 -34 -369 -172 -427 -362 -17 -57 -20 -87 -16 -182 4 -110 6 -117 47 -200 94 -190 263 -298 466 -299 243 0 460 166 520 399 73 285 -110 579 -400 640 -77 16 -114 17 -190 4z m230 -218 c125 -62 190 -173 183 -312 -8 -132 -79 -238 -198 -297 -47 -23 -68 -27 -140 -27 -73 0 -93 4 -142 28 -65 32 -135 104 -170 175 -34 69 -32 185 3 262 86 185 286 258 464 171z"/>
<path d="M510 6641 c-74 -24 -138 -80 -164 -143 -24 -56 -20 -143 8 -204 69 -149 281 -180 402 -58 82 82 88 226 13 317 -57 69 -185 112 -259 88z"/>
<path d="M7925 6493 c-296 -23 -650 -84 -778 -132 l-27 -11 24 -49 c14 -27 37 -58 52 -70 51 -40 80 -40 354 9 143 26 407 56 566 65 175 11 182 5 224 -160 33 -130 50 -294 50 -484 0 -132 -3 -182 -13 -196 -13 -17 -19 -16 -143 19 -148 42 -282 69 -448 91 -153 20 -196 20 -196 -1 0 -33 83 -230 106 -251 14 -13 43 -24 71 -28 129 -16 250 -41 371 -76 142 -42 190 -62 198 -83 8 -20 -61 -280 -118 -446 -183 -531 -573 -1180 -1043 -1735 -70 -82 -133 -165 -141 -183 -14 -34 -21 -242 -8 -242 10 0 278 153 306 174 54 42 382 475 556 733 337 500 574 998 688 1443 19 74 38 138 42 141 17 16 207 -118 301 -211 102 -101 148 -169 188 -278 124 -333 -112 -790 -641 -1246 -72 -62 -145 -122 -162 -133 l-30 -22 -43 162 c-42 161 -116 367 -132 367 -6 0 -135 -172 -162 -217 -4 -6 -2 -33 4 -60 24 -105 66 -375 61 -399 -8 -44 -54 -76 -269 -192 -324 -173 -838 -412 -1252 -582 -169 -69 -303 -131 -368 -172 -21 -12 -33 -15 -33 -8 0 15 -74 121 -113 162 -22 24 -33 29 -55 23 -15 -3 -133 -48 -262 -100 -1811 -718 -3101 -1055 -4043 -1055 -283 0 -449 30 -560 100 -97 61 -129 116 -128 219 1 95 -5 108 -68 150 -31 21 -67 51 -80 65 -54 58 -90 20 -116 -122 -39 -215 0 -371 122 -488 107 -104 287 -170 528 -194 151 -16 591 -8 795 15 585 64 1336 240 2115 495 440 145 1093 383 1499 547 284 114 264 107 246 90 -8 -8 -85 -66 -170 -129 -163 -122 -284 -227 -262 -228 23 0 483 157 747 255 498 186 937 379 1422 625 223 113 313 154 317 145 8 -22 -12 -191 -35 -289 -114 -487 -402 -857 -839 -1076 -274 -138 -542 -188 -949 -177 -340 9 -614 51 -981 152 -190 52 -262 57 -355 25 -33 -11 -110 -34 -172 -51 -123 -34 -143 -53 -80 -77 253 -98 610 -198 892 -251 l149 -27 -63 -43 c-89 -61 -325 -173 -462 -220 -306 -104 -624 -125 -936 -61 -269 56 -529 183 -782 383 -46 37 -94 67 -105 67 -49 0 -278 -70 -283 -87 -9 -25 237 -235 410 -350 741 -496 1732 -427 2519 174 101 77 121 83 303 83 297 0 540 36 784 116 549 180 933 542 1141 1074 85 219 118 387 127 645 l6 180 31 30 c18 17 72 58 121 92 271 188 562 481 728 733 283 429 321 814 114 1161 -101 170 -268 316 -518 454 -128 70 -124 64 -110 185 24 211 5 567 -35 684 -10 28 -39 65 -93 116 -59 57 -82 87 -95 125 -10 28 -22 62 -28 76 -16 44 -43 49 -256 47 -108 -1 -215 -3 -237 -5z"/>
<path d="M9137 6277 c-49 -40 -93 -80 -98 -89 -6 -12 -6 -39 0 -75 29 -167 21 -292 -25 -433 -14 -41 -57 -132 -95 -202 -45 -81 -68 -134 -65 -145 7 -20 176 -133 199 -133 54 0 212 297 259 485 29 117 31 352 4 460 -17 70 -74 206 -85 204 -3 0 -46 -33 -94 -72z"/>
<path d="M6825 6270 c-27 -11 -185 -67 -350 -125 -282 -100 -365 -136 -364 -160 0 -5 35 -35 77 -65 327 -232 673 -570 921 -900 225 -299 345 -511 541 -960 57 -129 104 -237 106 -239 13 -15 86 101 98 156 9 37 -6 91 -39 143 -12 19 -49 87 -81 150 l-58 115 -8 187 c-4 103 -14 231 -24 285 -78 463 -273 899 -560 1258 -96 119 -156 175 -187 174 -12 0 -44 -9 -72 -19z"/>
<path d="M8845 2658 c-19 -18 -35 -42 -36 -53 -5 -61 2 -88 30 -116 25 -24 38 -29 79 -29 115 0 163 123 76 199 -49 44 -102 43 -149 -1z"/>
<path d="M7040 1911 c-8 -5 -105 -43 -215 -86 l-200 -78 -90 -82 c-183 -167 -366 -300 -551 -401 -123 -67 -116 -79 44 -70 245 14 412 33 440 52 57 36 229 193 323 294 125 133 289 339 289 362 0 19 -16 23 -40 9z"/>
</g>
</svg>