<svg xmlns="http://www.w3.org/2000/svg" version="1.0" preserveAspectRatio="xMidYMid meet" viewBox="141.41 130.11 767.98 753.75">

<g transform="translate(0.000000,1024.000000) scale(0.100000,-0.100000)" fill="red" stroke="none">
<path d="M6080 8912 c0 -34 20 -46 45 -28 26 18 15 50 -18 54 -24 3 -27 0 -27 -26z"/>
<path d="M5188 8869 c-42 -43 -45 -49 -24 -49 8 0 27 -15 41 -32 17 -22 29 -29 32 -20 6 16 29 39 51 51 15 9 13 13 -15 42 -18 17 -33 35 -33 40 0 17 -15 8 -52 -32z"/>
<path d="M4677 8873 c-13 -12 -7 -51 8 -57 34 -13 66 24 44 50 -12 15 -41 19 -52 7z"/>
<path d="M5790 8821 c-5 -11 -10 -22 -10 -25 0 -8 31 -36 40 -36 5 0 16 7 24 16 9 8 16 19 16 24 0 14 -30 40 -45 40 -8 0 -19 -9 -25 -19z"/>
<path d="M3927 8714 c-10 -10 -9 -52 2 -58 20 -13 42 7 39 33 -3 25 -26 39 -41 25z"/>
<path d="M5239 8551 l-36 -37 39 -37 39 -37 34 35 c19 19 35 36 35 39 0 4 -71 77 -73 75 -1 -1 -18 -18 -38 -38z"/>
<path d="M6324 8582 c-52 -8 -76 -82 -39 -122 24 -26 85 -27 108 -2 10 10 17 34 17 54 0 48 -37 79 -86 70z"/>
<path d="M3994 8510 c-89 -36 -56 -190 41 -190 46 0 95 51 95 100 0 31 -29 76 -57 89 -28 13 -50 13 -79 1z"/>
<path d="M4570 8501 c-17 -32 -11 -60 15 -77 23 -15 27 -15 49 -1 30 20 38 50 19 76 -19 27 -68 28 -83 2z"/>
<path d="M7041 8431 c-7 -13 -6 -23 3 -36 17 -24 50 -15 54 14 6 39 -39 56 -57 22z"/>
<path d="M5788 8405 c-8 -19 -8 -28 2 -40 30 -36 82 -3 62 40 -7 15 -20 25 -32 25 -12 0 -25 -10 -32 -25z"/>
<path d="M6774 8336 c-3 -8 -4 -23 -2 -33 5 -25 51 -25 56 0 7 36 -42 65 -54 33z"/>
<path d="M6577 8199 c-21 -12 -22 -42 -3 -58 20 -16 56 3 56 29 0 25 -30 41 -53 29z"/>
<path d="M7352 8151 c-27 -69 -50 -93 -133 -135 -34 -17 -62 -35 -61 -41 0 -5 28 -21 61 -33 72 -28 117 -75 142 -148 14 -41 18 -46 24 -29 44 118 71 149 161 182 27 10 49 23 48 28 -1 6 -30 24 -65 42 -72 36 -101 68 -126 133 -9 25 -19 48 -22 52 -4 4 -16 -19 -29 -51z"/>
<path d="M7906 8114 c-9 -8 -16 -22 -16 -29 0 -15 27 -45 40 -45 15 0 40 31 40 50 0 11 -9 24 -19 30 -25 13 -27 13 -45 -6z"/>
<path d="M2994 8097 c-20 -17 -27 -33 -27 -57 0 -24 7 -40 27 -57 32 -27 47 -28 85 -8 52 26 49 109 -5 134 -36 16 -50 14 -80 -12z"/>
<path d="M4980 7994 c-14 -3 -74 -11 -135 -20 -60 -8 -171 -30 -245 -49 -819 -206 -1479 -726 -1845 -1453 -139 -277 -233 -580 -275 -887 -18 -130 -24 -419 -11 -555 13 -146 58 -392 75 -416 11 -15 16 -15 41 -3 54 26 67 66 82 243 23 281 68 503 145 716 149 411 440 800 808 1080 378 287 870 459 1370 478 l175 7 -95 47 c-325 159 -682 170 -1095 33 -71 -23 -181 -65 -244 -94 -63 -28 -116 -49 -118 -47 -2 2 22 27 54 56 168 154 475 305 769 379 589 148 1199 55 1706 -260 188 -116 392 -298 534 -476 258 -322 446 -743 500 -1121 20 -137 23 -448 5 -587 -25 -189 -93 -439 -165 -597 -14 -32 -24 -58 -22 -58 7 0 71 94 123 180 309 517 390 1259 203 1864 -146 475 -424 923 -721 1159 -137 110 -419 237 -680 306 -232 62 -327 73 -634 77 -154 1 -291 0 -305 -2z"/>
<path d="M3227 7862 c-37 -40 -9 -102 46 -102 27 0 57 32 57 60 0 25 -38 60 -64 60 -13 0 -30 -8 -39 -18z"/>
<path d="M8030 7715 c-26 -32 13 -81 48 -59 34 22 22 74 -18 74 -10 0 -23 -7 -30 -15z"/>
<path d="M2551 7505 c-1 -11 -14 -42 -29 -70 -21 -39 -38 -55 -80 -76 -29 -14 -53 -30 -53 -34 0 -4 22 -17 48 -30 58 -26 68 -38 98 -111 l23 -56 12 38 c23 72 50 105 107 130 29 13 53 26 53 29 0 3 -20 14 -43 24 -41 18 -106 82 -107 106 -1 5 -7 24 -15 40 -11 24 -14 26 -14 10z"/>
<path d="M7733 7489 c-27 -10 -39 -49 -23 -78 14 -27 61 -28 85 -1 36 40 -10 99 -62 79z"/>
<path d="M8454 7446 c-10 -19 -33 -43 -55 -56 -22 -11 -39 -24 -39 -28 0 -4 18 -17 39 -29 27 -15 44 -35 52 -58 7 -19 17 -35 21 -35 4 0 17 18 28 40 11 22 34 47 50 55 17 9 30 20 30 24 0 5 -16 19 -36 32 -20 12 -43 37 -50 56 -8 18 -17 33 -19 33 -3 0 -13 -15 -21 -34z"/>
<path d="M2116 7155 c-15 -40 27 -66 58 -36 16 17 17 22 6 35 -16 20 -56 21 -64 1z"/>
<path d="M8138 7053 c-26 -31 -29 -42 -17 -65 16 -30 28 -38 61 -38 28 0 58 31 58 60 0 25 -38 60 -64 60 -13 0 -30 -8 -38 -17z"/>
<path d="M8650 6926 c-6 -8 -10 -25 -8 -38 2 -18 9 -23 33 -23 24 0 31 5 33 23 4 25 -13 52 -33 52 -7 0 -18 -7 -25 -14z"/>
<path d="M2614 6876 c-10 -26 4 -48 28 -44 17 2 23 10 23 28 0 18 -6 26 -23 28 -13 2 -25 -3 -28 -12z"/>
<path d="M1855 6797 c-13 -10 -16 -21 -12 -39 9 -33 35 -43 58 -22 23 21 24 38 3 58 -19 19 -25 20 -49 3z"/>
<path d="M5378 6653 c-121 -129 -239 -410 -255 -610 -3 -40 -9 -73 -14 -73 -13 0 -22 108 -16 199 l5 86 -56 -60 c-109 -117 -205 -295 -244 -451 -19 -79 -22 -116 -22 -334 -1 -244 -1 -245 -28 -302 -41 -89 -70 -119 -222 -242 -230 -185 -344 -318 -437 -512 -74 -153 -92 -231 -93 -399 0 -117 3 -153 22 -219 13 -44 26 -86 31 -93 4 -8 8 34 8 94 0 121 22 262 59 371 34 103 102 234 116 226 8 -5 9 -1 5 10 -6 14 -3 17 8 12 9 -3 18 0 21 7 7 20 44 19 44 -1 0 -11 -3 -13 -8 -5 -5 8 -14 7 -31 -6 -23 -18 -23 -18 -3 -23 16 -4 19 -2 15 10 -5 12 -2 14 12 9 9 -4 23 -3 29 1 20 17 44 10 38 -11 -3 -13 -7 -15 -12 -6 -11 17 -38 -10 -32 -33 2 -10 -1 -18 -7 -18 -6 0 -11 7 -11 15 0 9 -9 15 -22 14 -17 -1 -19 -2 -5 -6 17 -4 20 -13 18 -43 0 -10 1 -11 5 -2 3 6 15 12 26 12 15 0 18 5 13 20 -5 16 -2 20 14 20 12 0 21 7 21 15 0 8 9 15 20 15 11 0 20 -5 20 -10 0 -6 -6 -9 -12 -8 -7 2 -12 -5 -12 -14 1 -11 -4 -14 -14 -10 -14 5 -15 4 -2 -10 8 -9 18 -14 22 -11 4 2 5 -3 2 -11 -3 -9 -1 -16 5 -16 14 0 14 16 1 41 -9 16 -7 19 10 19 18 0 26 20 21 52 0 4 15 -2 34 -13 36 -22 46 -33 20 -23 -19 8 -20 -13 -1 -32 18 -18 27 -18 20 0 -3 7 2 16 10 19 9 4 16 2 16 -3 0 -6 -5 -10 -11 -10 -5 0 -7 -5 -3 -11 4 -7 10 -7 16 -1 7 7 15 7 24 -2 14 -15 14 -47 -1 -59 -6 -5 -4 -7 5 -4 8 2 23 0 34 -5 12 -7 22 -6 29 1 8 8 6 11 -8 11 -15 0 -16 3 -7 12 17 17 31 -5 28 -41 -1 -14 5 -32 14 -39 8 -8 9 -11 3 -7 -15 7 -17 -4 -3 -25 7 -10 13 -11 18 -5 10 15 31 13 42 -5 5 -8 10 -11 10 -6 0 5 -7 18 -17 28 -9 11 -11 18 -5 18 7 0 12 5 12 10 0 6 -7 10 -16 10 -12 0 -15 -6 -11 -21 l6 -21 -20 20 c-20 22 -27 58 -9 47 6 -4 7 -11 4 -17 -12 -19 41 4 58 26 15 18 18 18 18 4 0 -9 -6 -21 -12 -25 -16 -10 -20 -44 -4 -42 33 4 58 -3 74 -22 27 -33 65 -49 86 -37 16 9 17 7 11 -12 -5 -17 -4 -21 6 -17 8 2 13 10 11 16 -1 6 5 11 13 11 8 0 15 7 15 15 0 8 -4 15 -10 15 -5 0 -10 -4 -10 -10 0 -5 -4 -10 -10 -10 -23 0 -7 20 23 28 38 10 76 4 55 -9 -9 -6 -7 -9 10 -9 12 0 22 -5 22 -11 0 -6 -9 -8 -20 -4 -11 3 -28 1 -37 -5 -16 -9 -15 -10 7 -9 39 2 69 -11 63 -27 -3 -8 0 -14 5 -14 19 0 22 17 6 31 -13 11 -11 15 22 31 37 18 63 24 51 12 -10 -10 14 -63 26 -58 14 5 67 -41 67 -58 0 -9 -3 -9 -12 0 -7 7 -16 12 -20 12 -4 0 0 -8 10 -18 9 -10 20 -14 23 -9 3 4 18 10 33 11 23 3 26 0 21 -18 -5 -19 -4 -19 7 2 14 28 39 25 53 -6 11 -25 25 -29 25 -7 0 7 -8 19 -17 24 -16 9 -16 12 -3 21 8 5 25 10 38 10 19 0 22 4 16 22 -6 22 -6 22 12 3 13 -13 15 -20 6 -23 -6 -2 -12 -11 -12 -20 1 -15 2 -15 15 2 12 15 17 17 29 7 8 -7 19 -10 24 -7 5 3 14 -6 20 -19 14 -30 32 -32 39 -5 6 24 16 25 33 6 8 -10 8 -21 2 -32 -7 -12 -4 -22 10 -36 11 -11 23 -17 26 -13 4 4 -1 13 -11 20 -13 10 -16 20 -11 40 5 21 2 31 -11 42 -18 12 -18 13 -1 13 10 0 20 -9 23 -20 3 -11 10 -20 15 -20 5 0 6 5 3 10 -3 6 -1 10 4 10 6 0 11 -12 11 -27 0 -21 -3 -24 -10 -13 -5 8 -12 11 -15 8 -13 -13 6 -28 35 -28 27 0 48 24 29 34 -5 2 -4 3 3 2 7 -2 13 -13 12 -25 0 -12 4 -20 10 -18 16 5 46 -31 40 -48 -4 -8 -1 -15 5 -15 6 0 11 4 11 9 0 5 3 17 6 26 4 9 3 15 -2 13 -8 -3 -14 4 -14 17 0 3 9 1 19 -4 16 -9 19 -7 17 14 0 14 -3 25 -6 25 -3 0 -6 9 -6 20 0 33 18 4 23 -36 5 -44 4 -43 32 -49 16 -3 21 1 21 18 -1 22 -1 22 -15 3 -13 -17 -15 -18 -15 -3 0 9 5 17 11 17 5 0 7 4 4 10 -3 6 -2 10 4 10 10 0 27 -39 23 -53 -1 -4 7 -3 18 3 23 12 25 8 8 -20 -11 -17 -10 -22 2 -30 8 -5 20 -10 25 -10 6 1 2 5 -7 11 -10 5 -18 15 -18 20 0 6 5 7 10 4 6 -3 10 3 10 14 0 12 7 21 15 21 8 0 15 5 15 11 0 5 5 7 10 4 6 -3 10 -11 10 -16 0 -6 -4 -8 -9 -4 -6 3 -15 -4 -21 -15 -7 -13 -7 -20 0 -20 5 0 10 5 10 11 0 8 5 8 15 -1 13 -10 15 -9 15 9 0 20 2 21 15 7 20 -19 19 -36 -2 -36 -13 0 -14 -3 -5 -12 19 -19 14 -32 -5 -17 -15 11 -14 10 1 -9 14 -17 16 -22 5 -22 -10 0 -11 -2 -2 -8 9 -6 8 -28 -7 -92 -10 -47 -21 -94 -25 -105 -11 -30 57 83 83 139 36 77 79 212 103 326 27 127 32 364 10 475 -19 99 -63 207 -121 300 -94 148 -122 216 -122 292 -2 136 46 193 205 245 161 52 223 129 249 306 16 112 7 139 -62 178 -97 56 -130 92 -175 189 -65 139 -114 184 -237 220 -58 16 -58 17 -58 55 0 21 9 85 20 141 11 56 18 104 16 106 -4 4 -50 -35 -111 -92 -11 -11 -38 -41 -58 -67 l-38 -46 35 -36 c40 -39 45 -50 19 -42 -10 3 -44 7 -75 8 -32 1 -58 5 -58 8 -1 37 -34 228 -46 270 -17 60 -48 110 -68 110 -6 0 -28 -17 -48 -37z m491 -628 c31 -15 32 -17 67 -119 l24 -68 -48 7 c-26 3 -66 17 -89 31 -39 23 -83 71 -83 91 0 19 62 65 98 72 2 1 16 -6 31 -14z m-1482 -1617 c-3 -8 -6 -5 -6 6 -1 11 2 17 5 13 3 -3 4 -12 1 -19z m-48 -11 c0 -9 -2 -9 -5 0 -3 7 -13 9 -22 6 -14 -4 -14 -3 -2 5 16 12 30 7 29 -11z m26 13 c-9 -14 26 -49 44 -43 13 4 13 2 -1 -7 -14 -8 -22 -6 -38 10 -19 19 -22 50 -5 50 4 0 4 -4 0 -10z m129 -6 c3 -8 2 -12 -4 -9 -6 3 -10 10 -10 16 0 14 7 11 14 -7z m50 -43 c-10 -10 -21 -16 -24 -14 -3 3 4 11 14 19 28 20 33 17 10 -5z m39 4 c-3 -9 -8 -14 -10 -11 -3 3 -2 9 2 15 9 16 15 13 8 -4z m84 -27 c-3 -8 -6 -5 -6 6 -1 11 2 17 5 13 3 -3 4 -12 1 -19z m-97 -2 c0 -11 -19 -15 -25 -6 -3 5 1 10 9 10 9 0 16 -2 16 -4z m175 -24 c-3 -3 -11 0 -18 7 -9 10 -8 11 6 5 10 -3 15 -9 12 -12z m-92 -7 c-3 -9 -8 -14 -10 -11 -3 3 -2 9 2 15 9 16 15 13 8 -4z m-10 -26 c21 0 21 -1 3 -8 -20 -7 -56 13 -56 32 0 5 7 1 16 -7 8 -9 25 -16 37 -17z m57 9 c0 -9 4 -8 10 2 5 8 10 10 10 4 0 -18 -13 -24 -27 -13 -8 7 -13 8 -13 1 0 -5 7 -15 15 -22 8 -7 15 -16 15 -21 0 -5 -9 0 -21 12 -11 11 -18 27 -15 35 7 17 26 19 26 2z m-103 -45 c-15 -16 -17 -16 -17 -1 0 9 6 18 13 21 20 7 22 -2 4 -20z m147 20 c-5 -5 -12 -12 -16 -18 -4 -6 -8 -2 -8 8 0 9 7 17 17 17 9 0 12 -3 7 -7z m66 -9 c0 -2 -7 -4 -15 -4 -8 0 -15 4 -15 10 0 5 7 7 15 4 8 -4 15 -8 15 -10z m90 2 c0 -3 -4 -8 -10 -11 -5 -3 -10 -1 -10 4 0 6 5 11 10 11 6 0 10 -2 10 -4z m-127 -31 c-4 -11 -1 -13 13 -8 11 4 15 3 11 -4 -4 -6 -1 -14 5 -16 9 -4 8 -6 -3 -6 -23 -1 -55 24 -40 33 6 4 8 12 5 18 -4 7 -2 8 4 4 6 -4 9 -13 5 -21z m67 15 c0 -5 -2 -10 -4 -10 -3 0 -8 5 -11 10 -3 6 -1 10 4 10 6 0 11 -4 11 -10z m-160 -15 c7 -8 17 -12 24 -8 8 4 8 2 -1 -7 -9 -10 -16 -8 -34 9 -13 11 -18 21 -12 21 6 0 16 -7 23 -15z m197 -37 c-3 -7 -5 -2 -5 12 0 14 2 19 5 13 2 -7 2 -19 0 -25z m117 17 c3 -8 1 -15 -4 -15 -6 0 -10 7 -10 15 0 8 2 15 4 15 2 0 6 -7 10 -15z m-144 -15 c0 -19 -18 -19 -23 -1 -3 14 -1 18 9 14 8 -3 14 -9 14 -13z m80 5 c6 -8 9 -19 5 -25 -8 -13 -35 -13 -35 0 0 5 7 7 15 4 8 -4 15 -1 15 5 0 6 -7 11 -15 11 -8 0 -15 5 -15 10 0 15 16 12 30 -5z m35 -5 c3 -5 1 -10 -4 -10 -6 0 -11 5 -11 10 0 6 2 10 4 10 3 0 8 -4 11 -10z m133 -1 c-10 -5 -15 -16 -11 -25 5 -13 7 -12 18 2 8 12 14 14 19 5 4 -6 12 -9 17 -6 5 4 9 1 9 -5 0 -7 -7 -10 -15 -7 -16 7 -68 -16 -59 -25 3 -4 1 -9 -5 -13 -7 -3 -11 2 -11 14 0 12 5 21 11 21 6 0 9 6 6 14 -6 15 11 36 28 36 5 0 2 -5 -7 -11z m-331 -15 c2 -6 -3 -11 -12 -11 -8 0 -15 7 -15 15 0 15 22 12 27 -4z m47 -16 c-3 -12 0 -18 10 -18 9 0 16 -7 16 -15 0 -8 5 -15 10 -15 17 0 11 38 -7 43 -16 4 -16 5 0 6 11 1 21 -7 24 -19 5 -19 6 -19 18 -3 8 10 16 15 20 11 4 -4 -4 -18 -17 -31 -23 -23 -26 -24 -50 -9 -14 8 -33 28 -42 43 -16 27 -16 28 4 26 14 -1 18 -6 14 -19z m181 2 c3 -5 1 -10 -4 -10 -6 0 -11 5 -11 10 0 6 2 10 4 10 3 0 8 -4 11 -10z m55 0 c0 -5 -5 -10 -11 -10 -5 0 -7 5 -4 10 3 6 8 10 11 10 2 0 4 -4 4 -10z m-83 -6 c-3 -3 -12 -4 -19 -1 -8 3 -5 6 6 6 11 1 17 -2 13 -5z m62 -20 c4 3 8 -1 8 -9 0 -11 -4 -12 -14 -4 -7 6 -12 19 -12 28 1 13 2 13 6 -2 2 -9 8 -15 12 -13z m201 -4 c0 -5 -5 -10 -11 -10 -5 0 -7 5 -4 10 3 6 8 10 11 10 2 0 4 -4 4 -10z m40 -16 c0 -2 -7 -4 -15 -4 -8 0 -15 4 -15 10 0 5 7 7 15 4 8 -4 15 -8 15 -10z m-90 -4 c0 -5 -8 -7 -17 -4 -12 4 -10 -1 7 -15 14 -12 35 -24 48 -27 17 -5 20 -9 12 -19 -8 -10 -8 -15 1 -21 7 -4 15 -2 17 4 2 7 10 12 17 12 16 0 28 -27 15 -35 -6 -4 -10 0 -10 7 0 10 -2 11 -8 0 -9 -13 -54 -3 -53 11 3 25 0 37 -8 32 -5 -3 -16 2 -25 11 -9 8 -20 13 -24 10 -7 -4 -8 25 -3 42 3 7 31 0 31 -8z m30 -16 c0 -8 -4 -14 -8 -14 -4 0 -8 9 -8 19 0 11 4 17 8 15 4 -3 8 -12 8 -20z m240 22 c0 -2 -7 -7 -16 -10 -8 -3 -12 -2 -9 4 6 10 25 14 25 6z m35 -25 c-6 -5 -25 10 -25 20 0 5 6 4 14 -3 8 -7 12 -15 11 -17z m-135 13 c0 -8 -19 -13 -24 -6 -3 5 1 9 9 9 8 0 15 -2 15 -3z m-82 -15 c-10 -5 -15 -17 -12 -27 5 -16 5 -16 -6 1 -13 21 -5 37 18 37 16 -1 16 -1 0 -11z m23 -22 c-10 -9 -11 -8 -5 6 3 10 9 15 12 12 3 -3 0 -11 -7 -18z m79 13 c0 -5 -2 -10 -4 -10 -3 0 -8 5 -11 10 -3 6 -1 10 4 10 6 0 11 -4 11 -10z m200 -25 c0 -5 -5 -3 -10 5 -5 8 -10 20 -10 25 0 6 5 3 10 -5 5 -8 10 -19 10 -25z m-240 4 c-11 -8 -8 -10 13 -6 18 3 27 0 27 -9 0 -8 -6 -11 -15 -8 -8 4 -15 1 -15 -6 0 -6 -4 -8 -10 -5 -5 3 -10 1 -10 -6 0 -10 -3 -10 -11 -2 -9 9 -8 18 5 38 10 15 20 24 24 20 4 -3 0 -11 -8 -16z m200 6 c9 -10 9 -15 1 -15 -6 0 -11 4 -11 9 0 5 -8 12 -17 14 -15 4 -15 5 -2 6 9 0 22 -6 29 -14z m-80 -9 c0 -2 -7 -9 -15 -16 -13 -11 -14 -10 -9 4 5 14 24 23 24 12z m30 -16 c0 -11 7 -20 16 -20 9 0 12 5 8 12 -4 7 -3 8 5 4 13 -9 5 -26 -13 -26 -7 0 -21 7 -32 16 -10 8 -13 12 -5 8 11 -5 13 -3 8 9 -3 10 -2 17 3 17 6 0 10 -9 10 -20z m257 -12 c-3 -8 -6 -5 -6 6 -1 11 2 17 5 13 3 -3 4 -12 1 -19z m49 -21 c-2 -7 -5 -4 -5 6 -1 9 -6 17 -12 17 -5 0 -7 5 -3 11 9 15 28 -16 20 -34z m-172 17 c5 -13 3 -14 -6 -7 -7 6 -20 13 -28 16 -10 4 -8 6 6 6 12 1 25 -6 28 -15z m51 5 c-4 -6 1 -17 11 -24 11 -8 14 -15 9 -15 -6 0 -17 6 -23 12 -10 10 -15 10 -23 -2 -5 -8 -7 -23 -5 -33 2 -9 0 -15 -5 -11 -15 9 -10 39 11 62 22 23 36 30 25 11z m60 -39 c-3 -6 -12 -10 -18 -10 -8 0 -8 3 1 9 10 6 10 10 -3 21 -8 7 -15 17 -15 23 0 6 9 1 21 -11 11 -12 17 -27 14 -32z m160 0 c1 -19 -4 -30 -13 -30 -11 0 -12 3 -3 13 6 8 8 17 5 20 -5 5 3 27 9 27 1 0 2 -13 2 -30z m35 5 c14 -19 14 -19 -2 -6 -10 7 -18 18 -18 24 0 6 1 8 3 6 1 -2 9 -13 17 -24z m-69 -4 c-8 -5 -10 -14 -6 -21 5 -9 4 -11 -3 -6 -18 11 -14 36 6 36 13 0 14 -2 3 -9z m-341 -11 c0 -5 -4 -10 -10 -10 -5 0 -10 5 -10 10 0 6 5 10 10 10 6 0 10 -4 10 -10z m300 0 c0 -5 -2 -10 -4 -10 -3 0 -8 5 -11 10 -3 6 -1 10 4 10 6 0 11 -4 11 -10z m-70 -28 c0 -4 -9 -8 -20 -9 -16 -1 -17 1 -7 12 12 13 27 11 27 -3z m160 -6 c0 -3 -4 -8 -10 -11 -5 -3 -10 -1 -10 4 0 6 5 11 10 11 6 0 10 -2 10 -4z"/>
<path d="M2127 6650 c-3 -11 -19 -28 -36 -37 -37 -22 -39 -31 -7 -43 14 -5 30 -19 37 -32 6 -13 13 -24 15 -26 1 -2 20 14 42 36 l40 40 -38 41 c-22 23 -41 41 -43 41 -3 0 -7 -9 -10 -20z"/>
<path d="M8302 6528 c-7 -7 -12 -22 -12 -35 0 -27 42 -42 65 -23 28 23 11 70 -25 70 -9 0 -21 -5 -28 -12z"/>
<path d="M8878 6419 c-47 -27 -42 -103 8 -115 60 -15 99 61 54 106 -22 22 -37 24 -62 9z"/>
<path d="M1685 6301 c-56 -23 -82 -105 -50 -159 60 -101 215 -67 215 49 0 86 -85 142 -165 110z"/>
<path d="M8626 6155 c-29 -57 -78 -96 -138 -110 -40 -10 -35 -32 10 -44 64 -18 98 -46 127 -106 15 -30 31 -54 36 -53 4 2 21 28 36 58 25 48 37 59 91 85 34 17 62 33 62 37 0 4 -21 16 -47 28 -61 27 -89 53 -119 113 -13 26 -25 47 -27 47 -1 0 -15 -25 -31 -55z"/>
<path d="M7820 6135 c0 -9 10 -69 22 -133 20 -101 23 -150 23 -362 0 -262 -11 -363 -60 -561 -135 -537 -486 -1035 -954 -1352 -118 -80 -364 -199 -510 -247 -81 -27 -126 -47 -119 -52 7 -4 37 -13 66 -19 28 -7 52 -16 52 -21 0 -5 4 -7 8 -4 16 9 155 -19 160 -32 2 -8 -3 -12 -13 -10 -10 2 -19 -3 -21 -10 -1 -7 0 -8 2 -3 3 5 14 6 26 3 18 -4 20 -2 15 17 -4 18 -1 21 24 19 16 -1 29 -6 29 -11 0 -5 -7 -6 -16 -3 -8 3 -13 2 -9 -3 3 -5 0 -11 -7 -13 -9 -3 -9 -6 0 -12 7 -4 12 -2 12 4 0 6 5 8 10 5 6 -3 13 1 16 9 3 9 10 16 15 16 6 0 5 -8 0 -19 -9 -17 -8 -18 12 -13 12 3 34 13 48 23 14 10 29 16 32 13 9 -9 187 42 282 80 137 56 129 37 -34 -78 -262 -184 -603 -300 -986 -338 -122 -11 -440 -5 -550 12 -193 29 -509 128 -654 205 -36 19 -67 32 -70 30 -10 -11 210 -215 297 -274 344 -234 892 -334 1312 -241 350 78 695 275 994 568 596 584 887 1365 815 2185 -12 137 -50 341 -79 424 -27 76 -76 150 -123 184 -45 32 -67 37 -67 14z m-1185 -2784 c-8 -14 -25 -14 -25 0 0 5 5 7 10 4 6 -3 10 -1 10 6 0 7 3 10 6 6 3 -3 3 -10 -1 -16z"/>
<path d="M3485 5873 c-130 -201 -233 -452 -280 -687 -102 -514 -29 -1012 221 -1495 152 -292 361 -558 554 -702 328 -244 747 -404 1144 -438 116 -10 149 -9 110 5 -167 58 -426 208 -619 359 -186 145 -323 291 -545 581 -398 519 -566 847 -655 1279 -53 256 -46 584 19 850 25 102 77 258 102 308 27 52 6 27 -51 -60z"/>
<path d="M9028 5809 c-23 -13 -24 -65 -1 -77 22 -13 60 4 66 30 3 11 -2 27 -14 39 -22 22 -27 22 -51 8z"/>
<path d="M1763 5658 c-30 -34 -36 -63 -19 -96 41 -79 168 -42 152 43 -8 38 -49 75 -85 75 -16 0 -36 -10 -48 -22z"/>
<path d="M1420 5499 c-9 -16 -8 -26 5 -45 17 -27 27 -29 56 -14 21 12 25 50 7 68 -19 19 -56 14 -68 -9z"/>
<path d="M2140 5471 c-15 -30 -2 -53 29 -49 19 2 27 10 29 27 6 39 -39 56 -58 22z"/>
<path d="M8750 5335 c-15 -18 -7 -43 16 -52 24 -9 46 24 33 48 -12 23 -32 24 -49 4z"/>
<path d="M9019 5144 c-15 -18 -2 -47 24 -52 22 -5 42 35 26 54 -15 18 -33 18 -50 -2z"/>
<path d="M1707 5094 c-12 -13 -8 -52 7 -57 8 -3 22 1 33 8 14 11 16 18 7 32 -12 19 -36 28 -47 17z"/>
<path d="M1443 5033 c-18 -7 -16 -38 2 -53 20 -17 47 5 43 34 -3 21 -22 29 -45 19z"/>
<path d="M8740 5010 c-27 -27 -25 -56 5 -86 29 -29 58 -26 88 8 22 26 22 40 -4 72 -25 31 -61 34 -89 6z"/>
<path d="M1971 4904 c-24 -94 -85 -158 -179 -185 -23 -7 -41 -17 -39 -22 2 -6 27 -19 56 -29 97 -32 147 -90 165 -192 9 -47 17 -39 40 36 27 90 84 143 174 163 45 9 40 30 -13 45 -80 22 -151 101 -170 187 -10 49 -21 48 -34 -3z"/>
<path d="M8300 4551 c-7 -15 -6 -23 5 -35 28 -27 69 10 44 40 -16 20 -37 17 -49 -5z"/>
<path d="M8535 4525 l-29 -24 24 -28 c14 -15 26 -30 27 -32 1 -2 16 10 32 26 l30 30 -27 26 -27 25 -30 -23z"/>
<path d="M1506 4384 c-20 -20 -20 -38 -1 -58 23 -22 64 -2 65 31 0 13 -27 43 -40 43 -5 0 -16 -7 -24 -16z"/>
<path d="M8863 4314 c-23 -48 -37 -63 -75 -84 -27 -14 -48 -27 -48 -30 0 -3 21 -16 48 -30 38 -20 53 -36 76 -84 l30 -58 21 49 c22 49 68 96 106 108 24 8 17 18 -32 44 -24 13 -43 36 -66 81 l-31 62 -29 -58z"/>
<path d="M4443 4323 c5 -28 4 -30 -16 -27 -21 4 -21 4 -2 -5 11 -4 24 -6 28 -4 5 3 11 -4 14 -15 4 -16 11 -19 34 -17 16 2 29 0 29 -5 0 -6 4 -10 9 -10 6 0 9 9 8 20 -1 19 -20 22 -43 7 -13 -8 -44 33 -44 57 0 8 -5 18 -12 22 -8 5 -9 -2 -5 -23z"/>
<path d="M4246 4275 c4 -8 11 -15 16 -15 6 0 5 6 -2 15 -7 8 -14 15 -16 15 -2 0 -1 -7 2 -15z"/>
<path d="M4356 4271 c-3 -5 1 -11 9 -14 9 -4 12 -1 8 9 -6 16 -10 17 -17 5z"/>
<path d="M4420 4259 c0 -6 7 -8 16 -5 12 5 15 2 10 -11 -6 -14 -4 -15 5 -6 6 6 8 16 5 22 -9 14 -36 14 -36 0z"/>
<path d="M4509 4245 c-1 -3 -2 -8 -3 -12 -1 -5 -5 -13 -9 -19 -4 -8 1 -11 16 -10 13 0 24 6 24 11 0 12 -26 39 -28 30z"/>
<path d="M4409 4221 c7 -11 17 -21 24 -21 8 0 8 3 -1 9 -8 4 -13 12 -12 17 1 5 -4 10 -10 12 -9 3 -9 -1 -1 -17z"/>
<path d="M4458 4203 c7 -3 16 -2 19 1 4 3 -2 6 -13 5 -11 0 -14 -3 -6 -6z"/>
<path d="M4595 4190 c5 -16 3 -19 -12 -14 -15 5 -15 4 -3 -4 10 -8 18 -8 27 0 17 14 16 25 -3 32 -12 4 -14 1 -9 -14z"/>
<path d="M4500 4181 c0 -6 4 -12 8 -15 5 -3 9 1 9 9 0 8 -4 15 -9 15 -4 0 -8 -4 -8 -9z"/>
<path d="M4535 4170 c-3 -6 1 -7 9 -4 18 7 21 14 7 14 -6 0 -13 -4 -16 -10z"/>
<path d="M4605 4150 c-3 -6 1 -7 9 -4 18 7 21 14 7 14 -6 0 -13 -4 -16 -10z"/>
<path d="M4535 4130 c-3 -5 -1 -10 4 -10 6 0 11 5 11 10 0 6 -2 10 -4 10 -3 0 -8 -4 -11 -10z"/>
<path d="M4767 4098 c7 -46 13 -48 11 -4 -1 20 -5 36 -9 36 -4 0 -5 -15 -2 -32z"/>
<path d="M4570 4116 c0 -2 7 -6 15 -10 8 -3 15 -1 15 4 0 6 -7 10 -15 10 -8 0 -15 -2 -15 -4z"/>
<path d="M4950 4110 c0 -5 5 -10 10 -10 6 0 10 5 10 10 0 6 -4 10 -10 10 -5 0 -10 -4 -10 -10z"/>
<path d="M4684 4102 c3 -5 0 -13 -6 -15 -9 -4 -10 -6 -1 -6 17 -1 25 16 12 25 -7 4 -9 3 -5 -4z"/>
<path d="M5087 4104 c-3 -3 -3 -13 0 -22 5 -14 3 -15 -8 -4 -7 6 -18 12 -23 12 -6 -1 -1 -9 12 -20 13 -10 22 -21 20 -24 -2 -2 0 -8 5 -12 4 -4 7 0 7 9 0 10 4 17 9 17 5 0 7 9 4 20 -6 22 -17 33 -26 24z"/>
<path d="M2232 4068 c-21 -21 -8 -68 19 -68 10 0 39 30 39 40 0 10 -29 40 -39 40 -4 0 -12 -5 -19 -12z"/>
<path d="M8499 4064 c-16 -20 0 -49 27 -49 35 0 28 64 -7 65 -4 0 -12 -7 -20 -16z"/>
<path d="M4992 4038 c2 -5 8 -9 13 -9 5 0 11 4 13 9 1 5 -4 9 -13 9 -9 0 -14 -4 -13 -9z"/>
<path d="M5116 4035 c4 -8 10 -15 15 -15 4 0 6 7 3 15 -4 8 -10 15 -15 15 -4 0 -6 -7 -3 -15z"/>
<path d="M5146 4036 c3 -9 11 -16 16 -16 13 0 5 23 -10 28 -7 2 -10 -2 -6 -12z"/>
<path d="M5025 4010 c3 -5 1 -10 -5 -10 -6 0 -8 -5 -4 -11 4 -8 9 -7 15 2 12 19 11 29 -2 29 -5 0 -7 -4 -4 -10z"/>
<path d="M5090 3995 c0 -8 2 -15 4 -15 2 0 6 7 10 15 3 8 1 15 -4 15 -6 0 -10 -7 -10 -15z"/>
<path d="M5350 3995 c0 -8 4 -15 9 -15 5 0 11 7 15 15 3 9 0 15 -9 15 -8 0 -15 -7 -15 -15z"/>
<path d="M5420 3986 c0 -10 -6 -13 -17 -9 -11 4 -14 3 -9 -5 10 -17 46 -15 46 2 0 8 -4 18 -10 21 -5 3 -10 -1 -10 -9z"/>
<path d="M4815 3979 c-4 -6 -5 -12 -2 -15 2 -3 7 2 10 11 7 17 1 20 -8 4z"/>
<path d="M5045 3980 c-3 -6 1 -7 9 -4 18 7 21 14 7 14 -6 0 -13 -4 -16 -10z"/>
<path d="M5450 3975 c0 -8 4 -15 10 -15 5 0 7 -6 4 -14 -3 -8 -1 -16 4 -20 5 -3 7 5 6 17 -1 12 -3 28 -3 35 -1 17 -21 15 -21 -3z"/>
<path d="M5530 3976 c0 -9 -9 -25 -20 -36 -15 -15 -16 -20 -5 -20 7 0 19 -8 25 -17 10 -16 10 -16 5 3 -3 12 -1 33 4 47 7 17 7 28 1 32 -6 4 -10 -1 -10 -9z"/>
<path d="M5155 3971 c-3 -5 -2 -12 3 -15 5 -3 9 1 9 9 0 17 -3 19 -12 6z"/>
<path d="M5305 3959 c-4 -6 -5 -12 -2 -15 2 -3 7 2 10 11 7 17 1 20 -8 4z"/>
<path d="M5360 3955 c0 -8 7 -15 16 -15 14 0 14 3 4 15 -7 8 -14 15 -16 15 -2 0 -4 -7 -4 -15z"/>
<path d="M1709 3937 c-48 -37 -52 -107 -8 -148 91 -85 218 44 130 132 -23 22 -39 29 -68 29 -21 0 -45 -6 -54 -13z"/>
<path d="M5420 3940 c-13 -8 -13 -10 2 -10 9 0 20 5 23 10 8 13 -5 13 -25 0z"/>
<path d="M5600 3922 c0 -5 10 -17 23 -28 22 -19 22 -19 4 2 -9 11 -14 24 -10 27 3 4 1 7 -5 7 -7 0 -12 -4 -12 -8z"/>
<path d="M5355 3910 c-3 -5 -1 -10 4 -10 6 0 11 5 11 10 0 6 -2 10 -4 10 -3 0 -8 -4 -11 -10z"/>
<path d="M5415 3910 c-3 -5 -1 -10 4 -10 6 0 11 5 11 10 0 6 -2 10 -4 10 -3 0 -8 -4 -11 -10z"/>
<path d="M5453 3905 c0 -8 4 -15 9 -15 4 0 8 4 8 9 0 6 -4 12 -8 15 -5 3 -9 -1 -9 -9z"/>
<path d="M5660 3900 c-6 -11 -7 -20 -2 -20 10 0 32 21 32 32 0 16 -19 8 -30 -12z"/>
<path d="M5480 3901 c0 -5 7 -12 16 -15 14 -5 15 -4 4 9 -14 17 -20 19 -20 6z"/>
<path d="M5752 3886 c1 -14 5 -23 9 -20 4 2 9 -1 11 -7 2 -7 9 -5 17 5 12 14 10 16 -10 17 -13 0 -18 3 -11 6 13 5 7 23 -8 23 -6 0 -9 -11 -8 -24z"/>
<path d="M5590 3890 c0 -5 5 -10 11 -10 5 0 7 5 4 10 -3 6 -8 10 -11 10 -2 0 -4 -4 -4 -10z"/>
<path d="M5686 3882 c-2 -4 -1 -14 4 -22 7 -11 9 -9 7 8 -1 24 -3 26 -11 14z"/>
<path d="M5817 3883 c-4 -3 -7 -13 -7 -22 1 -13 3 -13 11 2 11 19 8 33 -4 20z"/>
<path d="M5902 3844 c-7 -14 -8 -23 -2 -19 15 9 32 45 22 45 -5 0 -14 -12 -20 -26z"/>
<path d="M5840 3839 c0 -5 5 -7 10 -4 6 3 10 8 10 11 0 2 -4 4 -10 4 -5 0 -10 -5 -10 -11z"/>
<path d="M5800 3831 c0 -6 4 -13 10 -16 6 -3 7 1 4 9 -7 18 -14 21 -14 7z"/>
<path d="M5756 3793 c-6 -14 -5 -15 5 -6 7 7 10 15 7 18 -3 3 -9 -2 -12 -12z"/>
<path d="M7936 3794 c-22 -21 -20 -50 4 -74 24 -24 29 -24 58 -4 39 27 19 94 -28 94 -10 0 -26 -7 -34 -16z"/>
<path d="M8347 3703 c-3 -5 -8 -35 -12 -68 -17 -145 -82 -275 -163 -326 -43 -27 -118 -55 -209 -79 -24 -6 -43 -14 -43 -18 0 -4 33 -15 73 -24 208 -47 298 -147 335 -370 9 -60 20 -108 25 -108 4 0 7 4 7 9 0 33 34 190 51 235 42 114 157 201 309 236 30 7 61 16 69 20 16 9 15 9 -94 36 -184 44 -271 134 -309 317 -9 42 -16 90 -16 106 0 29 -14 49 -23 34z"/>
<path d="M2522 3678 c-16 -16 -15 -33 4 -52 19 -20 54 -5 54 22 0 20 -18 42 -35 42 -6 0 -16 -5 -23 -12z"/>
<path d="M2279 3463 c-4 -88 -7 -96 -53 -157 -5 -7 3 -24 22 -44 17 -18 34 -42 37 -53 8 -26 19 -24 39 6 9 13 28 35 42 48 l27 25 -29 38 c-26 33 -29 48 -34 128 -5 84 -7 91 -26 94 -21 3 -22 -1 -25 -85z"/>
<path d="M6391 3350 c-1 -21 15 -44 23 -32 3 6 16 8 29 6 12 -2 15 -1 7 2 -8 4 -18 12 -22 18 -5 8 -8 7 -8 -1 0 -19 -18 -16 -23 5 -3 12 -5 13 -6 2z"/>
<path d="M6440 3350 c0 -5 5 -10 11 -10 5 0 7 5 4 10 -3 6 -8 10 -11 10 -2 0 -4 -4 -4 -10z"/>
<path d="M2022 3319 l-33 -29 34 -33 33 -34 37 32 37 32 -38 30 -38 31 -32 -29z"/>
<path d="M2533 3218 c-21 -28 -23 -37 -7 -52 8 -9 19 -16 24 -16 11 0 40 29 40 40 0 11 -29 40 -39 40 -5 0 -13 -6 -18 -12z"/>
<path d="M7600 3116 c-27 -33 18 -72 48 -42 13 13 14 20 6 34 -15 23 -38 26 -54 8z"/>
<path d="M2287 3114 c-4 -4 -7 -27 -7 -51 0 -40 2 -44 23 -41 19 3 22 9 22 48 0 32 -4 46 -15 48 -9 1 -19 0 -23 -4z"/>
<path d="M2885 2990 c-42 -47 -7 -123 56 -123 61 0 91 75 49 121 -27 29 -80 29 -105 2z"/>
<path d="M2547 2773 c-4 -3 -7 -17 -7 -30 0 -18 6 -23 24 -23 30 0 40 13 31 40 -6 19 -35 27 -48 13z"/>
<path d="M7227 2698 c-30 -79 -32 -95 -18 -130 5 -13 17 -45 26 -71 9 -26 22 -46 27 -45 13 5 58 125 58 155 0 26 -49 163 -59 163 -3 0 -19 -33 -34 -72z"/>
<path d="M7822 2613 c2 -20 8 -28 23 -28 31 0 28 49 -3 53 -20 3 -23 0 -20 -25z"/>
<path d="M2174 2553 c-4 -14 -2 -33 3 -42 22 -35 73 -19 73 23 0 50 -65 66 -76 19z"/>
<path d="M3350 2544 c-10 -11 -11 -23 -4 -42 12 -34 37 -39 63 -13 18 18 19 25 9 46 -13 29 -48 34 -68 9z"/>
<path d="M3741 2371 c-27 -27 -28 -82 -3 -104 42 -38 112 -8 112 46 -1 41 -20 65 -58 73 -23 5 -35 1 -51 -15z"/>
<path d="M7480 2341 c-14 -27 -2 -51 25 -51 32 0 45 38 19 57 -24 18 -31 17 -44 -6z"/>
<path d="M4383 2298 c-58 -15 -89 -87 -62 -141 43 -83 159 -73 189 17 9 27 8 42 -3 69 -8 19 -20 38 -26 42 -26 15 -68 21 -98 13z"/>
<path d="M2921 2211 c-13 -23 -6 -47 16 -55 23 -9 44 14 41 43 -4 33 -42 41 -57 12z"/>
<path d="M6315 2200 c-4 -11 -24 -34 -46 -52 l-39 -31 31 -19 c16 -10 38 -32 47 -48 9 -16 20 -30 24 -30 3 0 16 15 27 33 11 19 32 39 46 45 30 14 32 28 5 37 -12 4 -32 24 -46 46 -27 44 -40 48 -49 19z"/>
<path d="M4124 1996 c-12 -31 0 -51 31 -51 27 0 30 3 30 30 0 25 -4 30 -28 33 -17 2 -29 -2 -33 -12z"/>
<path d="M5215 1986 c-29 -43 0 -96 53 -96 26 0 52 31 52 62 0 55 -76 79 -105 34z"/>
<path d="M3580 1961 c-14 -27 -13 -37 6 -55 22 -23 41 -20 60 9 16 24 16 27 -1 45 -23 25 -51 26 -65 1z"/>
<path d="M6747 1948 c-27 -22 -31 -60 -7 -86 26 -27 54 -28 80 -2 26 26 25 46 -5 75 -27 28 -44 31 -68 13z"/>
<path d="M7316 1917 c-26 -19 -18 -71 12 -75 50 -7 69 46 26 74 -17 12 -23 12 -38 1z"/>
<path d="M4695 1835 c-29 -28 -31 -51 -9 -83 31 -44 114 -15 114 41 0 27 -38 67 -64 67 -9 0 -28 -11 -41 -25z"/>
<path d="M5842 1818 c-26 -26 -2 -75 31 -62 22 8 31 42 17 59 -15 18 -32 19 -48 3z"/>
<path d="M5761 1516 c-6 -7 -9 -20 -5 -29 15 -39 72 -19 60 21 -8 25 -38 29 -55 8z"/>
<path d="M4901 1451 c-13 -24 9 -57 33 -48 23 9 31 34 16 52 -17 20 -37 19 -49 -4z"/>
</g>
</svg>