<?xml version="1.0" standalone="no"?>
<!DOCTYPE svg PUBLIC "-//W3C//DTD SVG 20010904//EN"
 "http://www.w3.org/TR/2001/REC-SVG-20010904/DTD/svg10.dtd">
<svg version="1.0" xmlns="http://www.w3.org/2000/svg"
 width="700.000000pt" height="700.000000pt" viewBox="0 0 700.000000 700.000000"
 preserveAspectRatio="xMidYMid meet">
<metadata>
Created by potrace 1.14, written by Peter Selinger 2001-2017
</metadata>
<g transform="translate(0.000000,700.000000) scale(0.100000,-0.100000)"
fill="#000000" stroke="none">
<path d="M3429 6276 c-66 -17 -109 -55 -149 -132 -39 -75 -38 -75 -165 -93
-267 -40 -594 -153 -845 -291 -475 -261 -867 -664 -1112 -1145 -82 -160 -137
-311 -193 -525 -12 -47 -35 -166 -45 -235 -14 -95 -20 -106 -57 -125 -107 -54
-155 -118 -156 -208 -1 -85 47 -151 139 -191 49 -22 61 -40 68 -104 55 -454
233 -903 500 -1257 47 -63 41 -56 125 -149 323 -361 698 -612 1124 -752 140
-46 342 -95 447 -109 94 -12 160 -32 160 -48 0 -5 16 -25 36 -46 107 -111 253
-102 349 22 42 53 50 58 128 67 154 18 435 91 597 155 559 220 993 579 1309
1084 62 98 163 305 204 416 34 92 58 170 55 180 -1 3 3 14 9 25 17 31 65 252
83 380 17 122 18 123 58 136 124 40 187 179 133 291 -23 49 -57 78 -114 99
-56 20 -56 18 -81 174 -3 17 -7 41 -11 55 -3 14 -8 39 -10 55 -19 111 -67 270
-129 432 -137 358 -418 740 -749 1021 -138 117 -370 271 -520 344 -86 43 -237
108 -248 108 -4 0 -24 8 -45 17 -46 20 -30 14 -181 57 -67 19 -175 44 -240 56
-182 33 -194 38 -209 84 -23 65 -51 101 -101 128 -59 32 -105 39 -164 24z
m-74 -420 c33 -22 56 -46 63 -65 9 -26 7 -33 -15 -55 -14 -15 -40 -35 -57 -45
-35 -22 -71 -67 -87 -108 -14 -37 -13 -123 1 -181 l13 -49 -52 -79 c-29 -43
-75 -125 -103 -181 -27 -56 -56 -107 -64 -114 -12 -10 -30 -6 -92 20 -108 46
-205 85 -287 115 -84 30 -336 103 -384 111 -19 3 -37 8 -41 10 -16 10 -136 19
-230 17 -165 -3 -168 10 -23 122 349 270 704 428 1138 507 124 22 155 19 220
-25z m415 29 c60 -8 234 -47 315 -70 307 -89 578 -230 903 -468 119 -89 114
-99 -53 -99 -109 0 -227 -17 -364 -53 -136 -35 -459 -149 -543 -191 -74 -37
-116 -29 -133 27 -10 31 -80 154 -146 254 l-58 90 13 52 c18 67 13 140 -12
190 -20 38 -41 58 -112 105 -49 33 -53 78 -11 117 47 44 90 61 136 55 22 -3
51 -7 65 -9z m-98 -630 c35 -44 100 -150 140 -230 44 -88 40 -100 -55 -146
-40 -19 -111 -58 -159 -86 -48 -29 -95 -53 -104 -53 -9 0 -55 21 -102 47 -48
25 -116 62 -152 81 -36 19 -77 45 -92 59 -26 25 -26 25 -10 61 27 60 119 224
150 267 29 41 58 48 91 22 7 -6 45 -11 85 -12 55 0 79 5 106 21 41 25 62 18
102 -31z m-1457 -90 c174 -36 371 -98 590 -185 212 -85 223 -93 191 -163 -22
-48 -84 -239 -111 -345 -33 -127 -35 -129 -102 -142 -32 -6 -71 -15 -88 -20
-16 -5 -44 -12 -61 -15 -66 -11 -214 -58 -309 -99 -145 -63 -135 -63 -197 3
-143 150 -264 320 -336 471 -50 104 -63 152 -69 257 -9 154 36 218 177 248 71
16 213 11 315 -10z m2882 -14 c24 -14 58 -47 80 -79 36 -53 38 -58 39 -144 1
-54 -4 -108 -13 -136 -33 -109 -33 -162 1 -162 8 0 23 24 34 53 37 95 42 123
43 261 l0 109 36 -34 c48 -46 189 -232 229 -304 6 -11 27 -47 46 -80 106 -185
215 -470 234 -615 3 -25 8 -47 9 -50 2 -3 13 -60 25 -128 29 -164 22 -222 -30
-240 -35 -13 -59 2 -91 55 -32 55 -59 83 -100 104 -45 22 -119 30 -166 17 -45
-12 -81 2 -122 48 -37 41 -84 47 -101 13 -10 -18 -6 -26 38 -67 27 -26 52 -54
54 -62 3 -8 -8 -40 -24 -71 -38 -74 -39 -132 -4 -198 14 -28 26 -59 26 -68 -1
-24 -74 -75 -252 -177 -128 -73 -135 -80 -164 -140 -27 -58 -25 -64 47 -145
215 -242 324 -518 270 -686 -49 -154 -253 -214 -546 -159 -65 12 -87 10 -99
-8 -8 -13 -8 -23 0 -35 10 -17 15 -18 94 -28 25 -4 56 -8 70 -11 40 -7 194 -6
236 1 240 42 362 208 320 435 -35 185 -108 328 -260 510 -39 47 -77 93 -84
102 -12 15 -1 23 95 74 59 32 160 93 224 136 l117 79 53 -9 c105 -16 187 13
250 89 34 41 47 49 74 49 21 0 44 -9 60 -23 33 -28 38 -75 20 -211 -47 -355
-140 -626 -318 -926 -46 -77 -141 -218 -156 -230 -3 -3 -24 -27 -45 -55 -67
-85 -239 -255 -285 -282 -42 -25 -48 -26 -210 -26 l-166 0 -88 48 c-48 26 -94
57 -102 69 -23 36 -37 145 -37 301 -1 237 20 382 73 511 16 39 70 140 120 223
192 326 206 373 207 694 1 223 6 268 30 311 29 49 60 64 146 71 120 9 155 29
225 130 l41 58 -19 31 c-10 17 -32 54 -49 81 -19 29 -38 80 -47 123 -25 123
-81 208 -184 285 -103 77 -101 72 -94 219 3 79 2 128 -4 128 -5 0 -52 -39
-104 -86 -105 -96 -122 -106 -217 -135 -182 -56 -317 -188 -452 -444 -124
-233 -197 -316 -344 -390 -50 -25 -107 -47 -126 -50 -19 -3 -43 -8 -52 -11
-26 -8 -85 -18 -168 -29 -140 -19 -294 -61 -407 -111 -135 -59 -313 -225 -428
-399 -128 -195 -217 -421 -250 -640 -4 -22 -10 -57 -15 -79 -5 -21 -8 -134 -8
-250 0 -187 3 -224 25 -326 13 -63 40 -160 58 -215 19 -55 32 -101 30 -103
-13 -13 -98 -18 -287 -16 -258 2 -233 -8 -395 156 -149 151 -290 329 -364 463
-47 87 -123 241 -152 310 -85 205 -151 499 -156 691 -2 85 8 110 53 129 47 20
87 12 111 -21 44 -61 81 -92 130 -107 57 -16 87 -15 167 9 l57 17 43 -27 c24
-14 72 -45 108 -67 36 -23 119 -69 184 -103 149 -77 154 -87 84 -153 -253
-239 -404 -635 -315 -826 60 -128 156 -177 351 -178 101 -1 122 2 132 16 7 9
11 24 10 33 -3 15 -18 17 -119 18 -165 2 -243 33 -291 117 -64 111 -48 266 44
452 59 118 124 207 240 328 l85 89 52 -21 c52 -20 53 -20 63 -1 16 29 12 54
-11 73 -20 18 -20 19 -3 38 10 11 33 29 51 40 29 18 93 108 93 131 0 13 -92
-49 -152 -102 -89 -78 -88 -78 -225 -11 -185 91 -363 202 -363 225 0 1 9 25
20 54 26 68 25 114 -4 185 l-24 57 57 44 c83 64 296 206 377 253 l72 41 48
-39 c135 -106 319 -226 455 -295 l51 -25 27 23 c75 65 74 62 86 188 6 55 17
129 52 327 7 44 22 53 87 60 44 5 63 12 90 37 68 63 113 102 150 131 22 17 51
39 65 51 14 11 63 46 108 78 l83 57 48 -26 c26 -14 103 -67 171 -117 128 -95
138 -98 165 -55 14 22 -31 63 -167 154 -84 57 -127 96 -115 108 8 8 141 80
215 116 115 56 106 64 190 -176 43 -123 50 -148 52 -169 2 -15 34 18 47 49 13
31 -2 83 -78 274 -16 41 -28 83 -26 93 2 13 23 27 68 45 36 13 85 34 108 44
86 39 379 132 517 164 122 28 156 32 265 31 112 -1 129 -3 167 -25z m-3459
-194 c6 -17 13 -57 16 -87 6 -62 41 -177 80 -263 46 -104 201 -327 299 -429
20 -20 43 -47 51 -61 15 -22 15 -25 -2 -40 -10 -9 -31 -22 -47 -29 -43 -19
-186 -114 -301 -199 -54 -41 -104 -78 -111 -82 -7 -4 -37 -1 -66 6 -107 28
-205 0 -262 -74 -65 -85 -75 -97 -94 -102 -11 -3 -38 4 -60 15 -32 16 -42 27
-47 54 -6 31 -1 135 10 204 2 14 7 45 10 70 27 179 127 471 220 645 84 157
269 420 287 409 4 -2 12 -19 17 -37z m1531 -138 c36 -18 101 -52 144 -77 93
-55 100 -76 35 -112 -44 -24 -186 -128 -223 -163 -49 -46 -135 -107 -152 -107
-10 0 -24 4 -32 9 -16 11 -9 44 57 256 47 151 78 225 94 225 6 0 41 -14 77
-31z m-359 -579 c11 -21 10 -37 -19 -163 -6 -26 -14 -89 -17 -140 -7 -123 -10
-136 -39 -149 -19 -9 -29 -7 -51 6 -14 10 -51 32 -83 49 -81 44 -249 158 -301
204 l-45 40 60 30 c101 51 362 129 472 142 7 0 17 -8 23 -19z m1204 -1885 c24
-26 60 -107 123 -275 19 -52 57 -153 83 -224 26 -71 46 -135 43 -143 -5 -13
-6 -13 -289 -17 -162 -1 -164 0 -110 105 40 79 41 83 42 187 1 59 -3 143 -9
188 -5 44 -7 92 -3 107 6 26 71 97 88 97 5 0 19 -11 32 -25z m719 -858 c9 -6
13 -17 9 -24 -9 -15 -241 -131 -365 -182 -104 -43 -256 -94 -334 -112 -27 -6
-55 -12 -63 -14 -85 -20 -221 -47 -243 -47 -21 -1 -41 13 -85 59 -61 64 -101
83 -175 83 -58 0 -107 -26 -164 -87 -48 -52 -56 -56 -95 -55 -90 1 -410 83
-577 147 -88 33 -352 161 -392 189 -12 8 -27 24 -36 35 l-14 21 1259 0 c979 0
1262 -3 1275 -13z"/>
<path d="M2828 5349 c-23 -13 -25 -77 -2 -86 23 -8 60 12 67 37 3 14 -1 28
-14 41 -22 22 -27 22 -51 8z"/>
<path d="M4084 5581 c-35 -15 -54 -51 -54 -104 0 -83 65 -121 140 -82 93 48
76 177 -25 190 -22 2 -50 1 -61 -4z"/>
<path d="M2327 4890 c-36 -11 -93 -54 -113 -86 -9 -13 -19 -50 -21 -83 -7 -77
15 -124 76 -162 85 -54 192 -29 250 58 30 45 34 59 33 114 -2 99 -128 189
-225 159z"/>
<path d="M3436 4141 c-28 -31 -14 -71 25 -71 22 0 32 6 38 23 19 51 -28 87
-63 48z"/>
<path d="M1988 3655 c-46 -43 -49 -98 -8 -143 38 -40 122 -25 153 28 21 35 21
62 2 99 -24 48 -104 56 -147 16z"/>
<path d="M1482 2998 c-28 -14 -59 -63 -65 -103 -5 -35 16 -93 41 -111 86 -63
235 40 202 142 -17 50 -63 84 -113 83 -23 0 -52 -5 -65 -11z"/>
<path d="M5452 2930 c-12 -5 -26 -20 -31 -32 -24 -64 57 -88 89 -27 9 16 8 26
-5 45 -17 26 -19 27 -53 14z"/>
<path d="M4733 2610 c-44 -18 -56 -77 -23 -110 39 -39 100 -1 100 62 0 32 -4
40 -26 48 -14 6 -26 10 -27 9 -1 0 -12 -4 -24 -9z"/>
<path d="M1672 4167 c-19 -9 -22 -17 -20 -46 2 -29 8 -37 26 -39 29 -4 64 25
60 51 -5 30 -38 47 -66 34z"/>
</g>
</svg>
