<?xml version="1.0" standalone="no"?>
<!DOCTYPE svg PUBLIC "-//W3C//DTD SVG 20010904//EN"
 "http://www.w3.org/TR/2001/REC-SVG-20010904/DTD/svg10.dtd">
<svg version="1.0" xmlns="http://www.w3.org/2000/svg"
 width="941.000000pt" height="941.000000pt" viewBox="0 0 941.000000 941.000000"
 preserveAspectRatio="xMidYMid meet">
<metadata>
Created by potrace 1.14, written by Peter Selinger 2001-2017
</metadata>
<g transform="translate(0.000000,941.000000) scale(0.100000,-0.100000)"
fill="#000000" stroke="none">
<path d="M5128 8925 c-2 -2 -24 -6 -48 -8 -59 -6 -217 -41 -305 -68 -38 -12
-74 -22 -80 -23 -5 0 -12 -3 -15 -6 -3 -3 -30 -13 -60 -23 -119 -40 -401 -172
-498 -234 -29 -18 -55 -33 -57 -33 -9 0 -90 -54 -93 -62 -2 -5 -8 -8 -13 -8
-6 0 -36 -17 -67 -38 -86 -58 -112 -65 -195 -59 -39 3 -82 8 -95 11 -98 21
-525 35 -691 21 -87 -7 -164 -16 -170 -20 -4 -2 -25 -6 -47 -9 -56 -9 -137
-29 -239 -60 -5 -2 -23 -6 -40 -11 -16 -4 -34 -11 -40 -15 -5 -3 -32 -15 -60
-25 -27 -10 -77 -32 -110 -48 -33 -17 -62 -31 -65 -32 -14 -1 -206 -126 -254
-165 -125 -100 -240 -214 -329 -325 -27 -33 -55 -68 -63 -78 -8 -9 -14 -21
-14 -26 0 -5 -3 -11 -8 -13 -27 -11 -244 -400 -267 -478 -4 -14 -13 -38 -20
-55 -17 -38 -74 -204 -81 -236 -6 -28 -9 -39 -17 -59 -7 -20 -36 -151 -51
-235 -6 -32 -19 -127 -22 -160 -1 -16 -5 -55 -8 -85 -4 -30 -9 -91 -11 -135
-3 -44 -10 -103 -16 -131 -10 -54 -30 -78 -129 -154 -25 -19 -50 -39 -56 -45
-7 -5 -31 -26 -55 -45 -57 -45 -316 -304 -354 -354 -17 -21 -35 -44 -41 -51
-37 -37 -168 -244 -207 -325 -62 -127 -110 -264 -124 -355 -13 -77 -10 -349 4
-404 24 -94 118 -277 178 -348 5 -7 15 -18 20 -25 6 -7 26 -33 46 -58 58 -72
65 -107 42 -195 -22 -84 -39 -226 -36 -304 5 -136 62 -259 176 -376 87 -88
157 -137 300 -206 59 -28 107 -55 107 -59 0 -4 -10 -22 -23 -41 -31 -48 -72
-135 -96 -204 -71 -213 -46 -378 78 -502 29 -29 56 -53 61 -53 5 0 15 -6 22
-13 33 -31 186 -90 266 -102 21 -3 47 -7 59 -9 23 -5 117 -15 198 -21 64 -6
353 -5 425 0 138 10 201 15 236 20 48 6 110 13 167 20 23 3 67 10 97 15 106
18 125 21 155 25 17 1 111 20 210 40 99 21 187 38 195 39 8 2 24 5 35 9 11 3
31 8 45 11 48 10 155 36 170 42 8 4 24 8 35 9 11 1 63 14 115 29 52 15 102 29
110 31 66 15 149 37 170 46 14 5 34 11 45 13 11 3 90 26 175 51 139 42 247 73
275 80 6 1 17 5 25 8 39 15 193 58 196 54 4 -4 -157 -68 -206 -82 -14 -4 -29
-11 -35 -15 -5 -4 -31 -13 -57 -21 -27 -7 -48 -17 -48 -21 0 -4 -6 -8 -12 -8
-12 0 -169 -58 -176 -65 -2 -2 14 -13 37 -25 23 -11 41 -18 41 -15 0 3 12 -3
27 -12 15 -10 27 -17 28 -15 0 2 7 1 15 -2 119 -38 120 -38 237 0 60 20 113
37 118 38 6 1 46 15 90 30 44 16 112 39 150 53 39 14 79 28 90 33 11 5 43 16
70 25 120 41 203 83 211 108 14 45 -3 221 -31 317 -3 10 -27 65 -43 100 -17
37 -131 231 -141 240 -6 5 -10 11 -67 112 -37 65 -80 169 -88 213 -3 17 -8 44
-11 60 -11 49 -12 194 -3 254 14 88 15 96 17 96 2 0 4 8 7 17 9 38 11 44 27
82 9 21 17 41 17 43 0 3 16 49 36 102 20 53 38 117 40 143 3 51 0 54 -96 79
-25 6 -52 14 -60 17 -8 3 -20 6 -27 8 -32 6 -92 69 -116 122 -34 75 -65 182
-59 205 2 10 23 34 45 55 22 20 47 44 56 52 10 9 30 52 45 95 34 95 71 152
123 188 43 29 153 80 153 70 0 -9 41 29 51 49 8 16 19 63 35 153 9 57 24 100
39 123 l16 22 33 -39 c19 -22 40 -47 47 -54 8 -8 25 -29 39 -47 14 -17 32 -40
40 -49 8 -10 26 -33 40 -51 55 -73 67 -75 125 -25 22 19 45 38 50 42 6 4 30
24 55 44 64 50 137 99 149 99 27 0 35 -50 37 -240 3 -222 5 -238 46 -369 16
-53 30 -100 32 -106 6 -23 19 -109 22 -153 16 -235 25 -274 71 -289 36 -12 65
-9 196 21 91 20 131 24 250 22 127 -2 151 -5 222 -30 87 -31 224 -100 255
-128 11 -10 22 -18 25 -18 17 0 162 -147 171 -172 3 -10 9 -18 14 -18 7 0 72
-106 98 -160 22 -48 61 -140 62 -148 0 -4 5 -25 11 -47 6 -22 11 -41 11 -42
-1 -2 4 -17 9 -35 5 -18 12 -46 15 -63 8 -47 15 -65 25 -65 33 0 238 267 345
450 49 84 137 255 140 275 1 5 12 33 25 60 32 70 34 123 9 203 -12 37 -25 76
-30 87 -5 11 -30 70 -55 130 -56 131 -161 341 -223 445 -134 225 -317 479
-429 597 -13 13 -23 26 -23 29 0 3 -12 18 -27 33 -16 15 -58 58 -94 96 -83 87
-182 181 -274 261 -63 55 -277 224 -316 249 -9 6 -44 29 -80 53 -57 39 -68 43
-104 37 -21 -3 -44 -9 -50 -13 -5 -4 -28 -14 -50 -21 -52 -18 -174 -73 -397
-180 -69 -34 -131 -61 -136 -61 -5 0 -15 -7 -22 -15 -6 -8 -15 -14 -18 -13 -9
3 -280 -136 -467 -239 -33 -18 -67 -36 -75 -40 -8 -4 -52 -29 -98 -55 -46 -26
-88 -48 -93 -48 -5 0 -9 -4 -9 -9 0 -5 -10 -13 -22 -17 -13 -3 -30 -12 -38
-19 -8 -6 -35 -23 -60 -36 -25 -13 -47 -27 -50 -30 -3 -4 -23 -16 -45 -28 -37
-20 -201 -120 -242 -148 -55 -38 -126 -83 -129 -83 -5 0 -134 -86 -154 -103
-22 -18 -80 -57 -86 -57 -3 0 -10 -5 -17 -10 -7 -6 -64 -47 -127 -91 -138 -96
-132 -92 -275 -199 -63 -47 -126 -94 -141 -105 -15 -11 -33 -26 -40 -32 -7 -7
-17 -13 -23 -13 -6 0 -11 -4 -11 -8 0 -13 -133 -102 -152 -102 -16 0 -78 63
-78 79 0 16 74 88 165 161 50 39 97 77 105 83 130 104 672 487 689 487 5 0 11
4 13 8 3 8 159 112 260 174 23 14 87 53 142 87 54 34 103 61 107 61 5 0 9 5 9
11 0 5 4 8 9 5 5 -4 11 -3 13 2 4 9 147 92 159 92 5 0 9 4 9 9 0 5 10 13 23
17 12 3 34 15 48 25 14 10 29 16 33 12 3 -3 6 -1 6 5 0 7 4 12 9 12 5 0 52 25
105 55 53 30 96 51 96 47 0 -4 4 -2 8 3 4 6 84 49 177 95 94 47 172 88 173 93
2 4 8 7 12 7 5 0 60 24 122 54 62 29 136 63 163 76 117 52 255 122 255 131 0
21 -240 145 -395 204 -38 14 -78 30 -87 36 -10 5 -26 9 -36 9 -10 0 -23 5 -30
12 -7 7 -12 9 -12 6 0 -3 -20 0 -43 7 -24 7 -48 10 -54 7 -9 -6 -22 -36 -27
-66 -24 -127 -69 -215 -157 -302 -105 -107 -269 -173 -414 -169 -151 5 -251
53 -393 189 -99 95 -104 97 -165 74 -29 -11 -151 -69 -272 -129 -280 -139
-329 -165 -605 -331 -205 -123 -175 -104 -365 -228 -88 -58 -161 -108 -163
-112 -2 -5 -8 -8 -13 -8 -6 0 -15 -5 -22 -11 -19 -17 -189 -139 -219 -157 -16
-9 -28 -20 -28 -24 0 -5 -5 -8 -11 -8 -6 0 -17 -6 -24 -12 -28 -26 -42 -36
-62 -47 -41 -22 -43 -19 -28 69 2 14 6 42 9 62 4 34 43 88 62 88 4 0 14 8 23
18 9 10 30 26 46 36 17 11 37 25 45 33 48 44 448 309 645 428 72 43 141 85
155 94 14 8 28 14 33 13 4 -1 7 1 7 6 0 4 15 13 33 21 17 8 34 17 37 21 3 4
43 27 90 51 47 24 87 47 88 51 2 4 12 8 22 8 10 0 20 3 22 8 4 10 67 42 83 42
7 0 15 4 17 8 2 4 30 21 63 36 33 16 86 42 119 57 32 16 64 29 71 29 7 0 15 3
17 8 2 4 31 20 66 36 34 16 62 32 63 35 0 3 2 15 4 26 2 11 7 47 10 80 5 50
11 88 20 125 14 55 31 100 52 138 65 115 65 117 21 137 -28 13 -212 60 -273
70 -11 2 -32 6 -47 9 -37 8 -70 14 -143 26 -33 5 -71 12 -85 15 -106 19 -320
36 -320 25 0 -11 35 -40 48 -40 22 0 12 -27 -15 -40 -105 -53 -214 -140 -293
-235 -40 -48 -150 -212 -150 -224 0 -6 -4 -11 -10 -11 -5 0 -10 -7 -10 -15 0
-8 -4 -15 -10 -15 -5 0 -10 -4 -10 -9 0 -14 -82 -142 -87 -137 -5 4 55 139 77
176 5 8 19 35 32 60 48 96 192 330 212 342 6 4 7 8 3 8 -4 0 -3 6 2 13 46 56
61 76 61 86 0 6 3 11 8 11 4 0 22 23 41 50 19 28 38 50 43 50 4 0 8 6 8 14 0
8 3 16 8 18 4 2 23 23 43 48 170 210 456 497 644 647 200 159 334 251 527 362
111 64 313 162 363 177 12 4 145 52 165 61 8 3 20 7 25 9 6 1 44 12 85 24 84
24 93 26 141 34 19 3 43 8 55 10 134 28 452 27 497 -1 4 -2 21 -6 37 -8 16 -2
62 -14 102 -26 40 -13 76 -22 81 -21 4 1 7 -2 7 -8 0 -5 7 -10 16 -10 50 0
294 -142 425 -248 153 -124 357 -347 336 -368 -4 -5 -204 -42 -262 -49 -16 -2
-30 -4 -30 -5 0 -1 -164 -46 -235 -64 -125 -33 -190 -49 -215 -53 -16 -3 -31
-6 -33 -8 -9 -8 -134 35 -246 84 -45 19 -109 44 -226 86 -41 15 -84 31 -95 35
-33 12 -93 31 -112 35 -10 2 -47 13 -83 25 -36 12 -73 23 -82 25 -10 2 -62 16
-115 30 -54 15 -109 29 -123 32 -14 2 -47 10 -75 18 -49 13 -211 50 -270 60
-61 12 -81 16 -135 28 -54 13 -56 12 -113 -20 -59 -33 -192 -119 -213 -138 -7
-5 -24 -19 -38 -29 -28 -20 -33 -32 -13 -33 11 0 65 -6 162 -18 35 -4 85 -11
150 -20 26 -4 146 -26 215 -40 14 -2 39 -7 57 -10 18 -3 45 -10 60 -16 15 -6
28 -10 28 -9 0 2 67 -10 100 -17 11 -3 31 -7 45 -10 14 -2 32 -7 40 -10 8 -3
22 -7 31 -9 8 -2 42 -11 75 -19 32 -9 66 -18 74 -20 8 -2 62 -18 120 -35 58
-17 112 -33 120 -35 8 -2 44 -13 80 -25 36 -12 70 -23 75 -24 6 -1 24 -7 40
-13 61 -23 70 -26 83 -29 17 -3 230 -83 267 -99 31 -14 86 -37 95 -40 69 -22
361 -170 467 -238 24 -15 47 -27 53 -27 5 0 10 -4 10 -8 0 -5 12 -15 28 -23
26 -13 82 -49 92 -59 3 -3 34 -25 70 -50 36 -24 70 -48 75 -52 45 -35 191
-153 195 -158 3 -4 28 -25 57 -47 l52 -41 68 13 c37 8 91 19 118 25 28 7 59
13 70 15 11 1 40 7 65 13 25 6 56 13 70 16 14 2 50 10 80 16 30 6 69 13 85 15
17 2 41 7 55 10 14 3 45 7 70 10 25 3 54 7 65 9 11 2 47 6 80 10 194 20 248
23 508 27 169 3 168 2 145 56 -18 40 -81 137 -95 146 -7 4 -13 13 -13 18 0 6
-6 16 -12 23 -7 7 -24 28 -38 46 -14 18 -29 38 -35 44 -5 6 -31 36 -56 66
-106 125 -222 233 -346 320 -74 52 -243 145 -243 134 0 -3 -10 1 -23 9 -20 13
-130 52 -177 62 -8 2 -46 10 -84 19 -38 9 -71 15 -73 12 -2 -2 -19 0 -36 4
-18 5 -57 12 -87 15 -56 7 -102 24 -131 47 -8 7 -58 69 -109 138 -83 110 -278
319 -365 390 -110 90 -220 164 -335 223 -75 39 -210 96 -242 102 -9 2 -26 9
-37 15 -12 6 -21 8 -21 6 0 -3 -18 1 -40 9 -22 8 -42 14 -45 15 -3 0 -6 0 -7
1 -5 1 -44 7 -93 14 -55 7 -500 16 -507 10z m-1690 -803 c12 -1 22 -5 22 -10
0 -10 -38 -49 -105 -107 -61 -52 -235 -225 -295 -292 -61 -68 -195 -226 -230
-273 -19 -25 -37 -47 -40 -50 -3 -3 -23 -30 -45 -60 -22 -30 -43 -56 -47 -58
-5 -2 -8 -10 -8 -17 0 -8 -6 -18 -13 -22 -7 -4 -37 -46 -67 -93 -30 -47 -58
-86 -62 -88 -5 -2 -8 -8 -8 -13 0 -5 -12 -28 -27 -52 -85 -134 -293 -563 -293
-603 0 -8 -4 -14 -8 -14 -5 0 -9 -6 -9 -12 -1 -7 -25 -76 -53 -153 -68 -181
-167 -515 -153 -515 3 0 0 -6 -6 -13 -6 -8 -9 -16 -6 -18 2 -3 -2 -29 -10 -58
-8 -30 -13 -57 -13 -60 1 -3 -1 -19 -5 -36 -4 -16 -9 -41 -12 -55 -4 -24 -48
-71 -110 -118 -129 -97 -191 -145 -249 -193 -77 -64 -168 -129 -181 -129 -12
0 -20 20 -31 74 -2 10 -8 33 -13 50 -6 17 -13 43 -16 59 -3 15 -7 38 -10 52
-18 89 -45 258 -50 315 -3 30 -8 99 -11 152 -6 97 -6 97 22 124 32 29 160 116
208 141 17 9 33 19 36 22 3 3 19 13 35 21 17 8 51 27 78 42 26 15 47 24 47 20
0 -4 4 -2 8 4 4 6 36 25 72 43 168 84 308 158 337 179 34 24 54 62 102 187 17
44 36 88 42 99 20 34 -5 39 -69 13 -33 -14 -63 -22 -66 -19 -3 3 -6 0 -6 -6 0
-7 -6 -12 -14 -12 -7 0 -35 -10 -62 -22 -27 -12 -51 -23 -54 -23 -45 -11 -418
-198 -539 -270 -50 -30 -94 -55 -97 -55 -3 0 -18 -9 -34 -20 l-28 -20 -5 21
c-3 11 -4 30 -2 42 2 12 6 45 9 72 7 66 14 104 36 205 10 47 21 96 24 110 28
136 129 420 186 525 9 17 30 55 46 85 16 30 43 76 61 102 18 26 33 50 33 53 0
3 4 11 10 18 5 7 42 53 81 102 73 90 187 208 248 255 18 14 38 30 44 35 7 6
35 26 62 45 28 19 52 37 55 40 8 8 50 31 146 80 77 40 106 52 144 64 3 1 10 4
15 7 9 6 77 30 100 35 6 2 19 5 30 8 192 52 288 63 560 61 132 -1 250 -3 263
-3z m3507 -432 c0 -1 36 -3 80 -5 117 -5 267 -44 390 -101 33 -15 63 -28 67
-28 4 -1 13 -7 20 -13 6 -7 16 -13 21 -13 5 0 50 -28 100 -62 89 -60 355 -313
343 -325 -3 -3 -140 -7 -303 -9 -279 -2 -345 -5 -433 -20 -19 -3 -55 -8 -80
-10 -96 -12 -105 -13 -110 -14 -3 -1 -31 -2 -64 -1 -66 2 -119 25 -173 74 -19
18 -76 62 -126 100 -51 37 -100 75 -110 83 -9 8 -20 14 -22 14 -3 0 -51 31
-108 68 -56 38 -132 86 -169 107 -38 22 -68 43 -68 49 0 5 3 7 6 3 3 -3 23 1
45 8 21 8 39 12 39 10 0 -3 10 -1 23 4 13 5 41 12 61 15 21 4 41 8 45 10 6 4
60 14 107 21 11 2 45 8 75 14 30 6 81 14 114 17 33 3 60 6 61 7 3 2 169 -1
169 -3z m-5951 -2142 c3 -18 8 -46 10 -63 13 -80 47 -273 51 -295 3 -14 10
-47 16 -75 5 -27 12 -63 15 -78 3 -16 19 -76 35 -134 29 -104 29 -105 10 -131
-10 -15 -30 -36 -43 -48 -29 -26 -246 -251 -312 -324 -63 -70 -167 -204 -231
-298 -54 -80 -64 -90 -74 -75 -10 16 -55 73 -68 88 -18 19 -69 123 -86 176
-22 65 -30 124 -30 209 1 114 22 207 74 331 31 73 121 232 146 257 7 7 13 16
13 20 0 4 11 21 25 37 13 17 28 35 32 40 103 135 365 394 399 395 7 0 14 -15
18 -32z m5038 -83 c27 -6 76 -48 102 -87 44 -68 17 -164 -62 -214 -55 -36
-104 -41 -161 -18 -61 24 -110 99 -105 161 6 71 54 135 120 158 37 12 46 12
106 0z m-4207 -485 c4 -6 8 -95 11 -198 4 -186 6 -223 18 -337 29 -280 101
-526 224 -770 31 -60 67 -128 80 -150 51 -81 191 -291 209 -311 10 -11 23 -27
28 -36 101 -158 129 -176 263 -172 48 1 110 5 138 8 28 3 71 8 95 11 123 14
217 25 259 29 19 2 55 7 80 11 25 4 63 8 85 10 22 2 40 5 40 5 0 1 16 3 35 5
39 4 83 10 214 30 49 8 93 12 98 9 4 -3 8 -2 8 3 0 4 12 8 28 9 15 0 47 3 72
7 25 3 77 9 115 13 39 3 73 8 77 10 4 3 9 0 12 -4 7 -11 -23 -20 -234 -71
-229 -55 -346 -82 -430 -97 -25 -4 -47 -8 -50 -9 -7 -1 -70 -14 -100 -20 -26
-5 -72 -13 -125 -20 -16 -2 -39 -6 -50 -8 -11 -3 -40 -8 -65 -12 -25 -4 -54
-9 -65 -11 -34 -6 -85 -13 -225 -30 -25 -3 -58 -7 -75 -10 -57 -7 -205 -20
-340 -30 -98 -6 -612 -6 -685 0 -25 3 -67 7 -95 11 -27 3 -64 8 -82 10 -18 2
-61 9 -95 16 -35 6 -72 13 -83 15 -11 1 -21 3 -22 4 -2 2 -6 3 -10 4 -213 46
-433 153 -529 258 -89 96 -121 239 -82 363 14 46 25 57 47 45 20 -11 127 -44
211 -66 72 -18 75 -18 140 -29 25 -4 54 -9 64 -11 17 -3 97 -12 176 -19 32 -3
29 -20 -15 -89 -85 -133 -140 -240 -132 -258 5 -14 64 -34 127 -44 66 -10 76
-11 95 -2 11 5 45 45 75 89 30 44 61 87 68 97 166 225 230 302 250 302 9 0 42
-47 118 -165 65 -102 224 -324 251 -351 43 -43 78 -53 178 -48 88 5 165 19
165 31 0 3 -17 31 -37 61 -21 30 -42 61 -48 70 -5 8 -17 23 -25 32 -8 10 -35
48 -60 85 -25 36 -50 72 -55 78 -21 24 -203 314 -240 382 -21 39 -41 75 -45
80 -10 13 -153 298 -178 355 -11 25 -29 66 -41 92 -24 54 -38 89 -40 101 0 4
-8 21 -16 37 -17 32 -102 256 -116 304 -8 27 -4 34 40 75 27 25 55 51 63 56 7
6 38 31 69 55 30 25 71 56 89 70 18 14 38 30 44 37 14 15 23 16 31 3z m-557
-548 c12 -32 22 -63 22 -70 0 -7 5 -12 10 -12 6 0 10 -6 10 -14 0 -7 12 -40
26 -72 37 -84 47 -107 50 -123 1 -7 7 -18 13 -24 6 -6 11 -19 11 -29 0 -10 5
-18 10 -18 6 0 10 -6 10 -13 0 -7 12 -38 26 -68 43 -88 72 -176 63 -190 -4 -7
-5 -17 -3 -21 3 -4 0 -8 -5 -8 -6 0 -11 -6 -11 -12 0 -7 -15 -23 -32 -35 -29
-20 -41 -22 -137 -18 -58 2 -124 6 -146 9 -22 3 -65 8 -95 11 -30 4 -57 8 -60
10 -3 2 -23 6 -45 9 -52 8 -157 42 -222 73 l-53 24 24 47 c56 110 249 356 405
514 47 48 91 88 96 88 6 0 20 -26 33 -58z m1279 7 c17 -10 33 -16 35 -14 5 5
85 -70 111 -103 9 -12 17 -28 17 -35 0 -7 5 -18 10 -23 15 -15 19 -130 7 -178
-22 -87 -109 -168 -207 -193 -61 -15 -196 6 -234 38 -72 60 -99 97 -118 164
-40 134 22 269 154 334 48 24 70 29 126 28 43 0 78 -7 99 -18z m968 -609 c50
-19 77 -59 85 -125 5 -40 -1 -53 -41 -94 -36 -36 -47 -42 -78 -40 -48 3 -104
34 -125 69 -63 107 43 234 159 190z m110 -1071 c-88 -25 -294 -80 -319 -84
-16 -3 -33 -8 -38 -11 -4 -3 -58 -18 -119 -34 -62 -16 -115 -32 -120 -37 -13
-13 116 -94 203 -128 45 -17 148 -28 148 -16 0 3 10 6 23 7 12 1 67 13 122 27
55 14 111 28 125 31 36 7 83 18 95 20 6 2 28 6 50 10 22 4 54 12 70 17 17 4
44 11 60 14 17 2 40 7 53 10 12 3 32 7 45 10 20 4 126 27 137 30 3 0 28 5 55
10 28 5 52 9 55 10 47 12 112 24 175 31 28 3 55 7 62 9 7 2 15 0 17 -4 5 -8
-82 -45 -179 -76 -27 -9 -57 -19 -65 -22 -8 -4 -17 -7 -20 -8 -3 -1 -90 -29
-195 -63 -197 -63 -393 -124 -410 -128 -5 -1 -59 -16 -120 -33 -60 -18 -117
-34 -125 -36 -8 -2 -51 -13 -95 -25 -72 -19 -92 -24 -145 -35 -8 -2 -16 -4
-17 -5 -4 -3 -6 -4 -75 -19 -32 -7 -59 -12 -60 -11 -2 1 -16 -4 -32 -10 -16
-6 -45 -13 -65 -16 -20 -3 -49 -9 -66 -14 -16 -5 -43 -12 -60 -15 -72 -13 -92
-17 -133 -26 -23 -5 -59 -12 -80 -15 -45 -8 -67 -12 -67 -14 0 -1 -16 -3 -35
-5 -19 -3 -46 -7 -60 -10 -14 -3 -74 -12 -135 -20 -60 -9 -128 -18 -150 -22
-22 -3 -53 -7 -70 -8 -16 -2 -59 -6 -95 -10 -194 -20 -487 -20 -630 -1 -202
29 -336 100 -354 187 -15 74 -2 126 67 269 45 96 73 129 102 124 11 -2 37 -6
59 -9 21 -3 50 -7 65 -9 14 -3 44 -7 66 -11 35 -5 326 -18 365 -16 8 0 29 1
45 0 50 0 416 -1 470 0 28 0 57 1 65 0 27 0 249 23 350 36 19 3 59 7 89 11 30
3 64 8 75 10 12 2 41 7 66 10 25 3 54 8 65 10 10 2 37 6 60 9 22 3 47 8 55 10
8 2 35 7 60 10 66 9 103 15 120 20 17 5 71 15 110 21 14 2 46 8 73 13 26 6 62
12 80 14 17 3 39 7 47 10 25 10 54 15 85 15 l30 0 -30 -9z"/>
<path d="M2703 7808 c-24 -6 -34 -16 -43 -42 -29 -90 81 -144 130 -64 37 62
-14 125 -87 106z"/>
<path d="M6817 7672 c-9 -2 -17 -9 -17 -16 0 -16 93 -208 128 -263 26 -42 27
-42 77 -38 77 6 147 16 172 26 21 8 22 10 9 51 -19 57 -40 112 -46 118 -3 3
-14 23 -25 45 -24 49 -51 75 -79 76 -141 3 -205 3 -219 1z"/>
<path d="M4419 7536 c-2 -2 -29 -7 -59 -11 -87 -10 -177 -25 -282 -47 -53 -11
-104 -21 -115 -23 -10 -2 -18 -4 -18 -5 0 -1 -7 -3 -15 -5 -43 -8 -121 -32
-273 -82 -137 -45 -165 -58 -156 -69 10 -12 23 -16 99 -28 14 -3 25 -5 25 -6
0 -1 12 -3 26 -5 58 -8 251 -58 374 -97 72 -23 139 -40 150 -39 11 1 26 3 33
3 6 1 12 5 12 10 0 4 3 7 8 6 4 -1 31 4 60 11 209 52 438 -21 566 -179 20 -25
41 -50 46 -57 6 -7 10 -16 10 -21 0 -5 17 -26 39 -48 31 -32 69 -51 202 -103
90 -35 191 -76 224 -91 33 -15 80 -35 105 -46 24 -10 121 -58 215 -105 182
-93 194 -97 239 -85 24 6 176 66 271 106 11 5 45 19 75 30 30 12 64 26 75 30
23 10 226 83 295 107 25 9 54 24 65 34 20 19 20 20 -15 50 -117 102 -365 278
-500 356 -118 68 -343 178 -373 182 -4 0 -21 8 -39 17 -48 25 -299 110 -358
121 -8 1 -44 9 -80 18 -83 19 -107 24 -150 31 -19 3 -46 7 -60 10 -47 8 -85
14 -130 20 -52 6 -586 15 -591 10z"/>
<path d="M8668 7136 c-21 -5 -38 -13 -38 -18 0 -5 -4 -7 -9 -3 -16 10 -127
-107 -151 -159 -60 -133 -33 -273 75 -381 67 -68 125 -96 209 -100 110 -5 209
28 268 89 168 174 118 454 -99 553 -44 20 -74 26 -137 28 -45 1 -98 -3 -118
-9z"/>
<path d="M4300 7113 c-25 -7 -52 -16 -60 -19 -8 -3 -17 -5 -20 -6 -27 -1 -136
-81 -191 -140 -87 -93 -126 -204 -123 -348 1 -52 4 -107 7 -121 5 -24 37 -94
72 -159 21 -38 117 -140 132 -140 7 0 13 -3 13 -8 0 -18 164 -87 181 -76 5 3
9 1 9 -4 0 -6 44 -9 108 -7 84 2 120 7 167 25 115 45 208 118 276 216 18 27
32 50 31 52 -1 1 4 15 11 30 38 73 50 217 27 316 -18 82 -71 175 -135 240 -76
78 -87 86 -160 118 -110 48 -243 60 -345 31z m274 -208 c177 -89 237 -281 143
-458 -76 -145 -242 -212 -402 -162 -86 28 -185 127 -214 216 -40 124 14 291
121 371 33 24 94 52 133 62 11 3 52 4 92 2 55 -2 85 -10 127 -31z"/>
<path d="M465 6924 c-131 -68 -180 -184 -132 -314 36 -99 124 -155 238 -153
75 2 143 39 195 105 15 19 36 84 39 122 5 53 -32 144 -73 182 -71 65 -200 93
-267 58z"/>
<path d="M8066 6793 c-1 -2 -61 -5 -132 -8 -71 -2 -140 -6 -154 -9 -14 -3 -49
-7 -79 -10 -59 -7 -196 -27 -276 -41 -132 -24 -275 -59 -306 -75 -16 -9 -16
-13 7 -55 31 -55 77 -95 112 -96 51 -3 44 -4 192 17 19 3 49 8 65 11 33 7 64
12 110 18 17 2 30 4 30 5 0 1 11 3 25 5 14 1 52 6 85 10 72 8 88 10 185 20
221 22 296 22 329 -2 28 -21 51 -85 76 -208 24 -115 26 -141 31 -374 5 -247 3
-257 -50 -247 -49 10 -69 14 -106 26 -39 12 -228 56 -275 64 -16 3 -41 7 -54
10 -13 3 -49 8 -80 11 -31 4 -72 8 -91 11 -67 8 -121 7 -131 -3 -11 -11 22
-107 68 -201 30 -61 54 -77 133 -86 30 -4 98 -17 150 -28 52 -11 105 -22 116
-23 12 -2 32 -9 45 -16 13 -7 25 -11 27 -10 5 5 118 -31 158 -50 55 -26 54
-31 -25 -304 -50 -172 -109 -335 -175 -480 -48 -105 -167 -339 -206 -404 -16
-29 -30 -56 -30 -61 0 -6 -3 -10 -8 -10 -4 0 -19 -21 -32 -47 -58 -112 -370
-568 -471 -690 -13 -16 -35 -44 -49 -63 -14 -18 -30 -38 -36 -44 -43 -44 -223
-278 -229 -297 -12 -35 -15 -229 -4 -229 5 0 17 4 27 10 92 51 216 123 248
143 35 22 104 95 144 151 8 12 25 33 39 48 13 16 31 39 40 52 29 44 135 181
143 184 4 2 8 9 8 15 0 6 9 20 19 31 29 31 311 441 311 451 0 3 15 28 34 57
71 113 287 511 291 538 0 3 13 31 28 62 15 31 27 59 27 61 0 3 8 22 17 43 9
22 17 41 18 44 1 3 8 21 17 40 8 19 29 78 47 130 18 52 35 102 38 110 3 8 7
20 9 25 1 6 18 66 39 135 20 69 37 131 37 138 1 6 10 12 20 12 19 0 101 -47
106 -61 2 -5 8 -9 14 -9 15 0 104 -74 185 -155 75 -75 127 -149 157 -225 10
-25 23 -56 29 -70 5 -14 11 -70 13 -125 5 -134 -16 -226 -88 -384 -25 -54
-115 -201 -157 -256 -17 -22 -37 -47 -44 -56 -56 -74 -198 -223 -309 -324
-118 -108 -256 -220 -262 -213 -2 1 -16 50 -31 108 -57 221 -126 415 -146 408
-5 -2 -43 -48 -85 -103 -74 -99 -75 -101 -70 -150 4 -42 22 -147 40 -240 2
-12 7 -48 11 -80 4 -33 8 -70 10 -82 4 -22 -43 -83 -63 -83 -7 0 -12 -3 -12
-8 0 -4 -21 -19 -47 -32 -27 -14 -50 -27 -53 -31 -6 -6 -103 -57 -205 -108
-38 -19 -71 -38 -73 -43 -2 -4 -8 -8 -14 -8 -6 0 -67 -28 -137 -61 -69 -34
-155 -75 -191 -92 -36 -16 -112 -52 -169 -78 -57 -27 -105 -49 -107 -49 -2 0
-27 -11 -56 -24 -158 -72 -213 -97 -215 -97 -2 0 -18 -6 -103 -42 -14 -6 -27
-11 -30 -12 -3 -1 -23 -9 -45 -19 -22 -10 -69 -29 -105 -43 -36 -15 -116 -52
-178 -84 l-114 -57 -16 29 c-10 16 -20 29 -24 29 -5 0 -8 6 -8 13 0 22 -90
117 -112 117 -11 0 -68 -19 -126 -42 -59 -23 -109 -43 -112 -43 -5 -1 -244
-94 -300 -118 -14 -5 -31 -11 -38 -13 -8 -1 -28 -9 -45 -17 -33 -15 -178 -71
-187 -72 -5 -1 -142 -51 -175 -65 -37 -15 -90 -35 -100 -37 -5 -1 -73 -25
-150 -53 -163 -59 -697 -238 -729 -244 -11 -2 -34 -9 -50 -15 -32 -13 -201
-63 -406 -121 -149 -42 -378 -101 -510 -131 -47 -10 -94 -21 -105 -24 -11 -3
-45 -10 -75 -16 -30 -5 -64 -12 -75 -15 -36 -7 -69 -14 -125 -24 -30 -6 -66
-12 -80 -15 -13 -3 -42 -7 -65 -10 -22 -3 -47 -8 -55 -10 -8 -2 -37 -7 -65
-10 -27 -3 -61 -7 -75 -9 -14 -3 -47 -7 -75 -11 -27 -3 -68 -8 -90 -11 -192
-23 -528 -33 -700 -20 -128 10 -149 13 -176 21 -13 5 -33 9 -44 10 -18 2 -129
52 -175 79 -22 13 -83 91 -87 113 -2 10 -6 49 -8 87 -5 88 -16 114 -68 151
-23 16 -55 41 -70 55 -74 65 -98 39 -133 -139 -9 -45 -11 -192 -3 -197 5 -2 6
-10 3 -17 -7 -20 32 -123 67 -173 44 -65 94 -110 164 -149 64 -36 186 -82 238
-90 18 -3 45 -8 62 -11 16 -4 46 -8 65 -10 19 -3 55 -6 80 -9 55 -6 425 -6
535 -1 131 7 284 20 355 30 19 3 51 7 70 10 54 7 110 16 165 26 28 5 66 12 85
14 41 7 63 11 195 37 55 11 114 22 130 25 17 3 44 10 61 15 18 5 36 9 40 8 5
-1 16 0 24 4 14 5 173 44 215 52 11 2 56 13 100 25 44 11 90 23 102 26 12 2
35 9 50 15 16 6 28 10 28 9 0 -1 20 3 45 10 25 7 52 14 60 16 8 2 40 10 70 19
30 9 69 20 85 25 118 32 336 100 545 171 63 22 115 39 115 39 0 -1 35 10 55
18 21 8 21 8 55 17 17 4 35 11 40 15 6 5 33 15 60 23 28 9 95 32 150 52 55 20
107 38 115 40 8 2 69 25 135 50 66 25 127 48 135 50 31 8 704 269 777 301 42
19 53 18 23 -3 -35 -24 -41 -29 -74 -58 -16 -14 -32 -25 -36 -25 -3 0 -15 -8
-26 -17 -10 -10 -37 -31 -59 -48 -47 -35 -55 -42 -154 -126 -41 -34 -69 -65
-63 -67 6 -2 75 18 154 44 79 26 148 49 153 50 6 1 24 7 40 14 17 6 30 11 30
11 0 -1 32 11 70 25 39 14 86 30 105 36 19 6 40 13 45 18 6 4 24 11 40 15 17
5 35 9 40 11 6 1 62 23 125 48 63 25 118 46 122 46 3 0 28 10 55 22 26 11 53
22 58 23 6 2 31 12 55 23 25 11 56 23 70 27 14 4 34 13 45 19 11 7 43 21 70
31 28 10 82 32 120 50 39 17 115 51 170 76 55 24 102 47 103 52 2 4 10 7 17 7
7 0 88 36 180 80 92 44 170 80 175 80 5 0 10 3 12 8 4 9 231 122 246 122 6 0
12 4 14 8 5 12 148 73 158 67 10 -6 6 -78 -11 -185 -19 -122 -61 -265 -116
-395 -39 -90 -143 -275 -155 -275 -4 0 -8 -5 -8 -11 0 -26 -197 -237 -290
-310 -110 -86 -295 -195 -405 -237 -27 -10 -59 -22 -70 -27 -22 -9 -30 -11
-60 -19 -11 -3 -36 -10 -55 -16 -65 -20 -226 -47 -335 -56 -55 -4 -365 -4
-445 1 -108 6 -214 16 -230 20 -8 2 -40 7 -70 10 -30 3 -68 9 -85 12 -16 3
-37 6 -45 8 -8 1 -33 6 -55 10 -83 16 -105 21 -223 51 -57 14 -111 27 -120 30
-9 2 -53 13 -97 24 -81 21 -189 29 -235 17 -36 -8 -132 -37 -150 -44 -8 -3
-19 -7 -25 -7 -25 -4 -103 -29 -128 -43 -36 -18 -25 -34 41 -58 26 -9 54 -19
62 -22 8 -4 17 -7 20 -7 4 -1 138 -43 230 -73 8 -2 16 -4 17 -4 2 0 21 -6 43
-14 22 -8 42 -14 45 -15 8 0 17 -3 75 -19 50 -15 89 -23 108 -24 6 0 12 -4 12
-9 0 -5 4 -7 8 -4 5 3 32 -1 61 -9 28 -7 54 -14 56 -14 3 -1 6 -1 8 -2 2 -1 8
-2 145 -25 56 -10 102 -23 102 -28 -1 -30 -322 -193 -495 -253 -81 -27 -256
-73 -300 -78 -16 -2 -30 -4 -30 -5 0 -14 -384 -19 -480 -6 -137 18 -267 49
-360 86 -11 4 -36 14 -55 21 -46 16 -231 108 -249 122 -14 12 -46 32 -71 43
-24 12 -205 146 -208 156 -2 4 -8 8 -14 8 -5 0 -22 9 -37 19 -23 17 -47 20
-71 11 -3 -1 -8 -2 -12 -1 -20 3 -228 -73 -228 -83 1 -17 17 -34 105 -112 94
-83 224 -184 315 -244 72 -47 310 -173 310 -164 0 4 6 2 13 -4 15 -12 215 -81
254 -88 15 -3 36 -7 45 -10 25 -7 57 -14 118 -24 30 -5 71 -12 90 -15 73 -14
405 -13 505 1 128 18 141 20 195 32 25 6 56 13 70 15 14 3 36 10 50 15 14 5
27 10 30 10 13 0 115 33 205 67 183 69 428 202 542 295 7 6 15 10 18 10 3 0
29 18 57 41 96 76 109 79 308 84 240 6 356 17 520 50 14 2 39 7 56 10 16 2 75
18 130 35 126 39 116 36 139 45 11 5 43 17 70 27 59 22 238 109 245 120 3 4
17 12 30 17 27 12 62 32 70 42 3 3 27 21 54 40 73 51 101 76 195 170 93 92
107 108 163 184 21 27 41 55 45 60 60 76 166 287 226 450 73 199 99 364 111
714 2 50 5 57 42 88 21 19 67 55 102 79 34 24 68 48 75 54 6 5 50 40 97 77 80
63 303 279 380 368 220 253 367 527 414 772 15 79 18 245 5 301 -4 20 -10 52
-14 70 -13 78 -78 219 -147 321 -50 73 -199 216 -270 259 -16 9 -28 20 -28 24
0 4 -6 8 -14 8 -7 0 -19 6 -25 14 -7 8 -26 22 -44 30 -18 9 -50 28 -72 42 -22
14 -48 27 -57 31 -10 3 -18 10 -18 15 0 5 -4 7 -9 4 -5 -4 -20 7 -34 23 -22
26 -24 36 -19 83 15 136 6 543 -13 638 -3 14 -8 38 -10 54 -9 45 -30 76 -108
158 -58 61 -79 92 -101 148 -21 53 -35 74 -53 81 -21 8 -290 19 -297 12z"/>
<path d="M9186 6625 c-23 -18 -89 -72 -135 -112 -37 -33 -40 -56 -23 -160 13
-78 7 -229 -13 -308 -9 -38 -51 -140 -93 -225 -42 -85 -76 -157 -77 -160 0 -3
-3 -10 -7 -16 -11 -18 80 -92 169 -138 31 -15 33 -15 55 7 58 55 164 256 212
399 47 143 55 402 18 540 -24 86 -67 188 -79 188 -4 0 -17 -7 -27 -15z"/>
<path d="M6795 6559 c-27 -10 -88 -32 -135 -49 -101 -34 -194 -68 -310 -110
-47 -18 -91 -32 -97 -33 -7 0 -13 -4 -13 -9 0 -4 -7 -8 -15 -8 -21 0 -86 -31
-112 -53 l-22 -19 38 -32 c20 -17 63 -49 94 -70 31 -22 57 -43 57 -48 0 -4 6
-8 13 -8 7 0 19 -9 27 -20 8 -11 19 -20 25 -20 5 0 31 -19 56 -43 26 -23 75
-67 110 -97 112 -97 337 -328 434 -444 22 -26 53 -62 68 -79 15 -18 35 -44 44
-59 10 -16 21 -28 25 -28 4 0 8 -6 8 -14 0 -8 3 -16 8 -18 19 -8 200 -275 267
-393 80 -142 220 -436 356 -752 8 -18 18 -33 24 -33 15 0 83 113 90 152 7 38
-15 112 -50 167 -12 20 -45 82 -74 137 -51 98 -52 104 -56 200 -9 198 -21 349
-30 384 -3 8 -7 33 -11 55 -8 56 -72 301 -88 339 -7 17 -13 35 -13 39 -1 7 -6
23 -29 82 -4 11 -8 22 -8 25 -1 3 -8 16 -16 30 -7 14 -13 26 -12 28 1 1 -11
32 -28 68 -16 37 -30 71 -30 75 0 5 -4 9 -10 9 -5 0 -10 6 -10 14 0 15 -85
173 -106 197 -8 8 -14 19 -14 23 0 7 -107 168 -137 206 -60 77 -125 152 -163
188 -52 48 -77 52 -155 21z"/>
<path d="M8851 2969 c-68 -41 -83 -123 -32 -178 16 -17 37 -31 48 -32 43 -3
80 4 105 19 27 16 56 67 49 87 -1 6 -4 18 -6 27 -15 72 -103 114 -164 77z"/>
<path d="M6970 2186 c-41 -18 -104 -43 -140 -56 -36 -13 -68 -29 -72 -34 -4
-6 -8 -8 -8 -4 0 3 -31 -6 -69 -20 -66 -26 -93 -45 -221 -162 -19 -18 -73 -62
-120 -98 -47 -37 -87 -69 -90 -72 -10 -11 -217 -143 -294 -187 -47 -27 -74
-49 -69 -54 17 -17 136 -13 428 16 71 7 124 20 150 39 78 54 253 219 354 332
78 87 86 98 158 189 69 89 91 129 76 138 -4 2 -42 -10 -83 -27z"/>
</g>
</svg>
