<?xml version="1.0" standalone="no"?>
<!DOCTYPE svg PUBLIC "-//W3C//DTD SVG 20010904//EN"
 "http://www.w3.org/TR/2001/REC-SVG-20010904/DTD/svg10.dtd">
<svg version="1.0" xmlns="http://www.w3.org/2000/svg"
 width="768.000000pt" height="768.000000pt" viewBox="0 0 768.000000 768.000000"
 preserveAspectRatio="xMidYMid meet">
<metadata>
Created by potrace 1.14, written by Peter Selinger 2001-2017
</metadata>
<g transform="translate(0.000000,768.000000) scale(0.100000,-0.100000)"
fill="#000000" stroke="none">
<path d="M4668 7605 c-12 -13 5 -55 23 -55 24 0 42 33 27 48 -12 12 -41 16
-50 7z"/>
<path d="M3777 7544 c-20 -21 -37 -41 -37 -44 0 -3 14 -14 30 -23 17 -10 30
-22 30 -28 0 -5 4 -9 9 -9 9 0 71 55 71 63 0 3 -15 21 -33 42 l-33 37 -37 -38z"/>
<path d="M3257 7538 c-6 -16 9 -58 21 -58 23 0 44 28 38 48 -8 24 -50 31 -59
10z"/>
<path d="M4382 7498 c-18 -18 -15 -42 7 -55 16 -10 24 -9 41 5 19 16 20 19 5
40 -18 25 -35 28 -53 10z"/>
<path d="M2512 7358 c4 -39 25 -48 37 -16 10 25 -2 48 -26 48 -10 0 -13 -9
-11 -32z"/>
<path d="M3827 7222 l-37 -38 38 -37 38 -37 32 33 c18 18 32 37 32 43 0 6 -15
24 -33 42 l-33 32 -37 -38z"/>
<path d="M4893 7247 c-43 -19 -51 -89 -15 -117 61 -49 137 5 111 79 -9 26 -28
40 -64 47 -5 0 -20 -3 -32 -9z"/>
<path d="M2575 7178 c-31 -18 -44 -40 -45 -76 -1 -99 106 -147 160 -72 26 36
30 69 14 101 -26 51 -85 72 -129 47z"/>
<path d="M3162 7178 c-10 -13 -15 -34 -13 -55 0 -7 12 -20 26 -29 25 -16 27
-16 50 6 14 13 25 31 25 40 0 38 -65 66 -88 38z"/>
<path d="M5630 7101 c-14 -27 -13 -29 12 -42 18 -9 24 -8 34 6 9 13 10 23 3
36 -13 25 -36 24 -49 0z"/>
<path d="M4382 7088 c-28 -28 -1 -75 38 -63 20 6 25 29 14 59 -7 19 -35 21
-52 4z"/>
<path d="M5360 7001 c-12 -23 12 -54 34 -45 23 9 26 43 6 54 -25 14 -28 13
-40 -9z"/>
<path d="M5150 6840 c0 -25 4 -30 25 -30 25 0 46 26 38 48 -3 6 -18 12 -34 12
-26 0 -29 -4 -29 -30z"/>
<path d="M5939 6823 c-26 -62 -61 -97 -131 -135 -32 -17 -58 -35 -58 -39 0 -5
27 -22 60 -39 73 -37 95 -60 128 -129 l25 -54 30 59 c16 32 39 69 51 80 27 26
79 54 99 54 8 0 20 6 26 13 8 10 4 19 -19 35 -16 12 -33 22 -38 22 -4 0 -26
13 -49 30 -28 20 -48 48 -67 90 -15 33 -29 60 -32 60 -3 0 -14 -21 -25 -47z"/>
<path d="M6493 6785 c-16 -18 -16 -35 1 -58 12 -15 18 -16 35 -7 12 6 22 16
22 23 5 49 -30 74 -58 42z"/>
<path d="M1580 6768 c-11 -12 -20 -24 -21 -27 0 -3 -2 -15 -4 -25 -5 -26 10
-52 40 -72 21 -14 30 -14 55 -4 55 23 67 84 25 125 -30 31 -68 32 -95 3z"/>
<path d="M3527 6659 c-27 -4 -70 -10 -95 -14 -59 -8 -267 -52 -308 -66 -17 -5
-40 -11 -50 -13 -28 -6 -208 -69 -299 -106 -199 -79 -496 -248 -643 -365 -149
-118 -310 -268 -402 -375 -80 -92 -221 -278 -242 -320 -7 -14 -15 -27 -19 -30
-21 -20 -204 -370 -192 -370 3 0 1 -6 -4 -12 -18 -23 -99 -244 -119 -320 -1
-5 -2 -9 -4 -10 -2 -3 -5 -16 -13 -53 -3 -11 -10 -38 -15 -60 -6 -22 -13 -51
-16 -65 -2 -14 -9 -44 -14 -67 -5 -24 -8 -43 -5 -43 3 0 0 -6 -6 -13 -6 -8 -9
-16 -6 -19 3 -3 1 -28 -5 -55 -14 -77 -21 -211 -20 -383 1 -193 0 -173 11
-250 5 -36 11 -78 13 -95 17 -146 53 -285 72 -285 3 0 19 8 35 17 27 16 46 48
54 89 2 11 4 19 5 19 0 0 3 23 5 50 3 28 7 69 10 93 3 24 8 71 10 105 3 34 7
73 10 87 6 32 17 98 20 130 4 36 75 310 85 329 4 9 16 39 25 66 27 76 109 254
148 320 25 41 138 217 147 228 6 7 40 50 77 97 65 82 245 268 329 340 45 39
191 150 197 150 2 0 34 19 70 43 119 79 438 226 547 253 8 2 67 17 130 33 63
16 135 33 160 36 24 4 48 8 51 11 4 2 31 6 61 9 30 3 65 8 78 10 22 4 239 17
317 19 18 1 33 2 33 2 0 1 -35 18 -77 39 -268 128 -515 163 -813 115 -82 -14
-81 -13 -125 -24 -159 -41 -390 -124 -477 -172 -16 -8 -28 -12 -28 -7 0 4 -5
1 -10 -7 -5 -8 -10 -10 -10 -5 0 27 118 124 235 193 39 23 75 46 82 52 7 5 19
10 28 10 8 0 15 5 15 12 0 6 3 8 7 5 3 -4 11 -3 17 2 16 14 196 90 196 84 0
-3 6 -1 13 5 13 11 229 77 284 87 15 2 50 9 78 15 28 6 69 13 91 15 21 3 66 8
99 12 81 9 365 9 440 0 33 -5 71 -9 85 -11 24 -3 99 -15 130 -21 8 -2 35 -8
60 -14 25 -7 56 -14 70 -17 27 -5 83 -22 115 -34 11 -5 49 -18 85 -31 175 -60
436 -209 596 -340 82 -67 241 -223 294 -288 19 -23 43 -52 53 -64 10 -12 44
-60 75 -107 31 -47 60 -86 65 -88 4 -2 7 -8 7 -13 0 -5 17 -37 38 -71 42 -70
112 -211 149 -303 43 -105 93 -257 87 -266 -3 -5 0 -9 5 -9 6 0 10 -3 9 -7 -1
-5 4 -33 11 -63 7 -30 14 -64 16 -75 2 -11 6 -33 10 -50 27 -129 27 -574 0
-705 -33 -161 -31 -154 -50 -220 -9 -30 -17 -59 -18 -65 -2 -5 -6 -16 -10 -22
-5 -7 -6 -13 -3 -13 3 0 -6 -29 -18 -64 -13 -36 -21 -67 -18 -70 3 -3 0 -6 -6
-6 -7 0 -12 -7 -12 -15 0 -9 -10 -35 -21 -58 -27 -51 -2 -35 33 22 12 20 25
38 28 41 7 6 87 146 118 208 61 120 146 369 167 491 3 19 8 37 10 40 2 4 6 27
9 51 4 25 9 56 11 70 22 119 27 197 27 395 0 191 -4 246 -31 400 -14 83 -21
117 -27 137 -3 9 -7 26 -9 37 -3 12 -7 30 -9 41 -3 12 -24 76 -47 143 -60 176
-152 380 -230 512 -10 17 -26 44 -35 60 -19 34 -103 158 -131 193 -128 165
-247 283 -359 358 -79 53 -301 164 -327 164 -7 0 -17 4 -22 9 -10 9 -215 80
-250 87 -11 1 -56 12 -100 24 -44 11 -96 23 -115 26 -19 2 -48 7 -63 10 -82
16 -639 26 -720 13z"/>
<path d="M1830 6543 c-38 -15 -44 -59 -12 -95 20 -24 43 -23 76 3 20 16 25 26
20 43 -14 46 -44 64 -84 49z"/>
<path d="M6622 6388 c-16 -16 -15 -43 3 -58 32 -26 78 25 49 54 -19 19 -36 20
-52 4z"/>
<path d="M1133 6173 c2 -5 -8 -30 -22 -58 -20 -38 -39 -57 -78 -80 -29 -16
-51 -34 -49 -40 1 -5 23 -21 49 -34 46 -25 97 -96 97 -135 0 -30 17 -16 34 28
22 57 51 89 106 116 l44 22 -23 19 c-13 11 -28 19 -35 19 -20 0 -83 74 -97
113 -7 20 -17 37 -22 37 -4 0 -6 -3 -4 -7z"/>
<path d="M6309 6149 c-22 -22 -25 -64 -6 -76 26 -16 56 -13 76 8 42 45 -26
112 -70 68z"/>
<path d="M7039 6118 c-12 -19 -38 -45 -56 -58 -18 -12 -33 -25 -33 -29 0 -3
16 -16 35 -28 18 -12 42 -39 51 -59 19 -40 19 -41 64 25 8 12 28 30 44 40 l28
18 -37 28 c-20 16 -44 44 -54 64 l-18 35 -24 -36z"/>
<path d="M707 5833 c-11 -10 -8 -38 4 -50 16 -16 59 5 59 28 0 23 -46 40 -63
22z"/>
<path d="M6720 5718 c-35 -38 -7 -98 45 -98 27 0 64 39 60 63 -4 24 -43 57
-66 57 -10 0 -28 -10 -39 -22z"/>
<path d="M7243 5598 c-29 -37 -20 -64 22 -63 16 0 20 7 20 35 0 37 -23 52 -42
28z"/>
<path d="M1207 5553 c-10 -9 -8 -41 2 -47 16 -10 41 5 41 24 0 10 -7 21 -16
24 -19 7 -19 7 -27 -1z"/>
<path d="M442 5468 c-18 -18 -14 -56 7 -68 15 -7 23 -6 35 6 22 21 20 51 -3
64 -24 13 -24 13 -39 -2z"/>
<path d="M3995 5348 c-27 -16 -49 -41 -99 -118 -88 -132 -165 -333 -182 -473
-10 -86 -15 -111 -19 -116 -3 -2 -5 2 -6 10 0 8 -3 23 -5 34 -7 32 -10 145 -4
145 3 0 4 17 4 37 -2 46 -13 45 -60 -7 -107 -118 -200 -290 -241 -445 -10 -38
-17 -115 -19 -210 -9 -412 -6 -384 -43 -453 -35 -64 -67 -96 -271 -270 -235
-199 -340 -346 -436 -607 -24 -65 -31 -141 -29 -288 2 -106 7 -152 19 -179 9
-21 16 -40 16 -43 0 -3 1 -7 1 -10 1 -3 2 -9 3 -15 0 -5 5 -11 10 -12 4 -2 9
44 11 102 2 58 6 121 10 140 3 19 8 49 11 65 19 119 99 316 143 355 10 9 15
22 13 29 -3 10 0 12 12 8 9 -4 16 -2 16 3 0 6 12 10 28 10 27 -1 27 -1 -6 -15
-21 -9 -31 -19 -26 -26 5 -9 11 -7 21 6 7 11 13 16 13 12 0 -4 12 -2 27 4 21
8 28 7 36 -6 5 -10 15 -14 29 -9 22 7 21 3 -14 -48 -11 -16 -15 -28 -9 -28 6
0 11 5 11 10 0 6 5 10 10 10 6 0 10 -6 10 -13 0 -7 10 -13 22 -14 11 -1 24 -7
28 -13 5 -8 9 -7 13 4 6 15 -4 21 -28 16 -10 -2 -35 28 -35 42 0 4 6 8 14 8 8
0 17 11 20 25 7 29 26 32 49 7 15 -17 15 -18 -4 -19 -10 -1 -17 2 -14 7 3 5 1
11 -5 15 -6 4 -10 -9 -10 -32 1 -33 2 -36 14 -21 12 16 14 16 29 0 16 -15 17
-15 17 0 0 9 5 20 12 24 8 5 9 2 5 -10 -5 -13 -3 -17 7 -13 21 8 39 -18 34
-47 -3 -14 -2 -25 1 -24 33 3 40 -3 31 -27 -6 -15 -6 -26 0 -30 11 -7 26 22
16 32 -3 3 -1 12 4 18 12 14 -15 30 -32 19 -5 -4 -4 4 3 17 11 20 14 21 17 7
2 -10 10 -18 18 -18 8 0 14 -10 15 -22 1 -27 7 -68 14 -86 3 -8 14 -10 30 -6
17 4 25 2 25 -7 0 -7 3 -9 6 -6 4 4 -7 20 -25 36 -17 16 -30 37 -30 48 1 16 2
16 6 1 5 -19 27 -15 56 10 15 14 17 13 17 -1 0 -10 -4 -17 -10 -17 -5 0 -10
-9 -10 -20 0 -15 7 -20 30 -20 17 0 39 -9 53 -24 13 -12 36 -27 52 -33 23 -7
32 -5 51 14 16 15 35 23 59 23 22 0 34 -4 30 -10 -3 -5 1 -10 10 -10 9 0 14
-4 11 -9 -8 -13 -36 -7 -46 10 -7 10 -9 8 -7 -9 1 -16 8 -22 23 -22 33 0 54
-10 54 -26 0 -8 5 -14 10 -14 14 0 13 27 -1 36 -8 4 1 14 22 25 45 24 46 24
53 -11 3 -18 12 -30 21 -30 9 0 15 -7 13 -16 -2 -10 3 -19 10 -21 8 -3 10 1 5
14 -6 17 -5 17 15 -1 26 -23 29 -41 5 -32 -17 7 -17 6 -1 -10 9 -9 21 -13 29
-9 26 17 92 9 110 -13 9 -12 20 -22 23 -22 8 0 -6 34 -18 43 -7 5 -6 10 4 17
11 7 16 4 20 -13 4 -15 8 -18 14 -9 4 6 4 16 1 22 -3 6 -1 10 4 10 6 0 11 8
11 17 0 13 3 14 12 5 8 -8 8 -15 -2 -27 -8 -9 -8 -15 -2 -15 6 0 14 5 17 10 5
8 11 8 20 0 7 -6 17 -9 23 -8 5 2 19 -8 31 -22 11 -14 19 -18 16 -9 -5 12 0
16 22 15 24 -1 28 -5 29 -29 1 -27 34 -75 34 -50 0 7 -4 14 -8 17 -5 3 -9 19
-10 36 0 17 -6 38 -13 46 -7 9 -8 14 -1 14 6 0 18 -10 26 -22 11 -15 16 -18
16 -8 0 13 2 13 10 0 14 -22 12 -33 -5 -26 -9 3 -15 0 -15 -8 0 -19 58 -15 71
5 7 11 9 8 9 -10 0 -13 3 -21 6 -18 9 8 44 -32 44 -50 0 -7 5 -13 12 -13 6 0
8 3 5 6 -3 4 -2 16 4 27 8 14 8 18 0 13 -6 -4 -11 -2 -11 3 0 6 7 11 16 11 13
0 15 7 9 38 -5 28 -4 34 5 26 6 -7 12 -27 13 -45 2 -39 17 -42 34 -8 l12 23
13 -30 c7 -17 19 -29 26 -27 15 6 16 -13 2 -22 -12 -8 6 -35 22 -35 6 0 4 7
-3 17 -11 13 -11 17 -1 20 6 3 12 11 12 19 0 8 5 14 11 14 5 0 7 5 4 10 -4 6
-11 7 -17 4 -7 -4 -8 -2 -4 4 5 9 12 8 26 -1 21 -12 26 -27 11 -27 -5 0 -11
-6 -14 -13 -3 -9 2 -13 16 -12 12 2 21 8 19 14 -4 19 17 12 28 -9 9 -16 8 -20
-5 -20 -8 0 -15 -4 -15 -10 0 -5 6 -10 13 -10 8 0 9 -3 1 -8 -6 -4 -10 -25 -9
-47 0 -22 -5 -65 -12 -95 -19 -81 -16 -103 7 -60 73 135 126 275 147 389 2 14
6 28 9 32 11 19 19 131 19 294 0 160 -3 188 -23 254 -29 93 -67 174 -136 287
-70 118 -93 183 -91 260 3 73 26 126 69 159 18 13 80 44 138 68 149 61 183 93
224 209 14 39 18 62 28 165 4 37 -24 89 -57 103 -50 22 -147 105 -147 126 0 7
-3 14 -7 16 -5 2 -26 38 -47 80 -22 43 -53 92 -70 109 -32 33 -138 89 -168 89
-35 0 -45 24 -37 92 4 34 10 77 14 93 3 17 8 50 12 75 l6 44 -62 -53 c-33 -29
-75 -71 -93 -94 -18 -23 -36 -43 -40 -45 -16 -7 -7 -29 22 -57 34 -32 39 -49
13 -41 -10 3 -36 6 -58 7 -42 2 -76 15 -73 27 3 9 -10 94 -22 152 -5 25 -11
56 -13 70 -2 14 -11 42 -20 64 -9 21 -17 40 -17 43 0 5 -27 33 -32 33 -2 0
-12 -6 -23 -12z m478 -667 c17 -16 54 -103 63 -149 4 -22 2 -23 -31 -18 -54 9
-96 30 -139 69 -47 44 -44 72 11 105 40 23 66 21 96 -7z m-1497 -1639 c10 -6
13 -12 6 -16 -12 -7 -42 31 -41 54 0 9 4 7 9 -7 5 -12 16 -26 26 -31z m-52 29
c4 -5 -3 -7 -14 -4 -23 6 -26 13 -6 13 8 0 17 -4 20 -9z m210 -36 c-4 -8 -11
-15 -16 -15 -6 0 -5 6 2 15 7 8 14 15 16 15 2 0 1 -7 -2 -15z m16 -35 c0 -5
-2 -10 -4 -10 -3 0 -8 5 -11 10 -3 6 -1 10 4 10 6 0 11 -4 11 -10z m70 -58
c-7 -3 -19 3 -28 13 -16 15 -15 16 12 4 15 -7 23 -15 16 -17z m90 15 c0 -5 -9
-7 -20 -4 -22 6 -27 -11 -10 -31 5 -7 3 -6 -6 2 -9 8 -14 21 -12 28 6 15 48
19 48 5z m20 -21 c0 -2 -7 -9 -15 -16 -13 -11 -14 -10 -9 4 5 14 24 23 24 12z
m60 -6 c0 -5 -5 -10 -11 -10 -5 0 -7 5 -4 10 3 6 8 10 11 10 2 0 4 -4 4 -10z
m-20 -40 c4 0 11 -7 14 -15 4 -11 0 -15 -12 -13 -23 4 -31 16 -24 42 5 18 7
18 10 4 2 -10 7 -18 12 -18z m-94 0 c9 0 12 -4 9 -10 -4 -6 -13 -5 -25 2 -10
7 -16 17 -13 22 4 6 8 5 11 -2 2 -7 10 -12 18 -12z m240 -49 c-9 -14 -26 -14
-26 0 0 5 5 7 10 4 6 -3 10 -1 10 4 0 6 -4 11 -10 11 -5 0 -10 5 -10 12 0 8 6
7 16 -4 9 -9 13 -21 10 -27z m64 29 c0 -5 -5 -10 -11 -10 -5 0 -7 5 -4 10 3 6
8 10 11 10 2 0 4 -4 4 -10z m-145 -10 c-3 -5 2 -23 11 -39 16 -27 19 -28 30
-13 8 9 14 12 14 6 0 -21 -38 -46 -59 -39 -26 8 -65 61 -51 70 6 3 13 -2 17
-11 4 -10 14 -26 22 -36 25 -29 31 0 9 38 -18 30 -18 34 -3 34 9 0 13 -4 10
-10z m247 -2 c-20 -20 -14 -26 24 -23 20 2 33 1 29 -3 -4 -4 -10 -7 -13 -7
-24 -2 -62 -17 -62 -25 0 -6 -4 -10 -10 -10 -6 0 -5 11 2 28 14 31 28 52 36
52 3 0 1 -5 -6 -12z m-332 -19 c0 -5 -4 -9 -10 -9 -5 0 -10 7 -10 16 0 8 5 12
10 9 6 -3 10 -10 10 -16z m270 -54 c0 -5 -5 -3 -10 5 -5 8 -10 20 -10 25 0 6
5 3 10 -5 5 -8 10 -19 10 -25z m195 15 c3 -5 1 -10 -4 -10 -6 0 -11 5 -11 10
0 6 2 10 4 10 3 0 8 -4 11 -10z m30 -10 c3 -5 1 -10 -4 -10 -6 0 -11 5 -11 10
0 6 2 10 4 10 3 0 8 -4 11 -10z m-91 -15 c-4 -10 6 -20 30 -32 27 -13 35 -21
30 -35 -6 -20 6 -24 23 -7 13 13 33 4 33 -15 0 -9 -10 -12 -32 -10 -31 4 -51
21 -42 35 2 5 -11 15 -31 25 -35 16 -50 54 -20 54 9 0 12 -6 9 -15z m41 -4 c3
-5 1 -12 -5 -16 -5 -3 -10 1 -10 9 0 18 6 21 15 7z m270 -1 c3 -6 -1 -7 -9 -4
-18 7 -21 14 -7 14 6 0 13 -4 16 -10z m-217 -20 c-14 -22 -24 -19 -15 5 4 8
11 15 17 15 6 0 6 -7 -2 -20z m276 -29 c-2 -3 -12 3 -22 13 -16 17 -16 18 5 5
12 -7 20 -15 17 -18z m-204 8 c-12 -9 -11 -10 7 -6 35 8 37 -9 3 -23 -17 -7
-33 -11 -35 -8 -10 10 9 48 24 48 14 0 14 -2 1 -11z m115 -9 c-3 -5 -11 -10
-16 -10 -6 0 -7 5 -4 10 3 6 11 10 16 10 6 0 7 -4 4 -10z m31 1 c-7 -11 18
-33 27 -24 4 3 7 1 7 -5 0 -14 -19 -15 -39 -3 -13 8 -9 41 4 41 4 0 4 -4 1 -9z
m129 -21 c3 -5 2 -10 -4 -10 -5 0 -13 5 -16 10 -3 6 -2 10 4 10 5 0 13 -4 16
-10z m175 -5 c0 -8 -2 -15 -4 -15 -2 0 -6 7 -10 15 -3 8 -1 15 4 15 6 0 10 -7
10 -15z m-113 -13 c10 -17 8 -18 -13 -14 -20 4 -24 0 -25 -19 -1 -16 -3 -19
-6 -7 -5 18 13 58 25 58 4 0 12 -8 19 -18z m43 3 c11 -13 11 -18 -1 -28 -7 -7
-10 -8 -6 -3 4 5 0 18 -10 28 -9 10 -11 18 -6 18 6 0 16 -7 23 -15z m170 -25
c0 -16 -4 -30 -8 -30 -5 0 -7 14 -4 30 2 17 6 30 8 30 2 0 4 -13 4 -30z m-36
-5 c-4 -8 -11 -12 -16 -9 -6 4 -5 10 3 15 19 12 19 11 13 -6z m-109 -35 c-3
-5 -10 -10 -16 -10 -5 0 -9 5 -9 10 0 6 7 10 16 10 8 0 12 -4 9 -10z"/>
<path d="M688 5297 c-21 -22 -38 -42 -38 -46 0 -3 13 -12 29 -19 16 -7 31 -23
35 -35 5 -21 8 -20 48 21 l43 42 -40 38 -40 38 -37 -39z"/>
<path d="M6886 5188 c-15 -21 -14 -24 3 -41 34 -35 83 4 59 47 -13 23 -44 20
-62 -6z"/>
<path d="M7449 5071 c-24 -31 -24 -56 1 -81 25 -25 41 -25 74 1 19 15 25 27
21 46 -10 60 -62 78 -96 34z"/>
<path d="M264 4969 c-28 -15 -54 -61 -56 -102 -4 -98 126 -150 197 -80 40 41
38 114 -4 157 -32 31 -100 44 -137 25z"/>
<path d="M7222 4843 c-32 -61 -78 -105 -124 -118 -5 -2 -11 -4 -15 -5 -5 -1
-10 -2 -13 -2 -3 0 -10 -6 -17 -13 -10 -11 -3 -17 32 -34 25 -12 49 -21 54
-21 12 0 71 -71 71 -85 0 -5 8 -20 18 -33 l18 -24 37 60 c29 48 47 65 92 87
30 16 55 32 55 36 0 5 -21 20 -47 33 -56 28 -82 54 -116 115 l-25 44 -20 -40z"/>
<path d="M6409 4811 c-2 -7 -2 -4 7 -67 3 -27 12 -80 20 -119 14 -73 14 -582
0 -655 -4 -19 -8 -46 -11 -60 -15 -100 -83 -341 -121 -429 -13 -29 -24 -60
-24 -67 0 -8 -4 -14 -10 -14 -5 0 -10 -6 -10 -14 0 -53 -231 -428 -336 -546
-127 -143 -195 -211 -298 -299 -66 -57 -194 -151 -205 -151 -5 0 -11 -4 -13
-9 -1 -5 -34 -25 -73 -46 -38 -20 -75 -41 -82 -47 -7 -5 -18 -11 -25 -12 -7
-1 -41 -17 -75 -34 -35 -18 -66 -33 -70 -33 -10 -2 -49 -16 -88 -34 -16 -7
-59 -23 -95 -35 -98 -35 -101 -40 -33 -62 32 -11 74 -21 93 -24 19 -3 56 -10
83 -15 26 -6 54 -8 62 -5 8 3 22 3 30 0 14 -6 13 -8 -1 -19 -12 -8 -14 -14 -6
-19 7 -4 12 -3 12 1 0 5 10 14 21 22 19 11 21 11 16 -3 -3 -8 -2 -18 4 -22 6
-3 13 3 16 15 3 12 10 21 15 21 5 0 6 -4 3 -10 -9 -15 7 -12 31 5 12 8 23 12
26 10 7 -7 159 34 260 72 54 20 101 33 105 30 3 -4 4 -9 2 -10 -106 -89 -260
-183 -405 -249 -151 -68 -373 -135 -514 -154 -25 -3 -47 -7 -50 -9 -31 -18
-490 -27 -630 -12 -107 12 -123 15 -380 82 -21 6 -132 44 -150 52 -8 3 -17 7
-20 8 -3 1 -13 5 -22 8 -10 4 -26 10 -35 14 -10 3 -20 7 -23 8 -3 1 -36 16
-73 34 -38 18 -70 31 -72 29 -10 -10 184 -191 280 -260 86 -61 241 -141 315
-162 14 -4 34 -11 45 -16 44 -19 177 -55 240 -65 11 -2 45 -8 75 -14 122 -23
373 -32 485 -18 135 17 287 52 370 87 11 4 45 18 75 30 86 35 144 63 151 73 3
5 9 8 13 6 12 -3 192 108 276 169 199 146 412 360 569 573 22 30 45 59 51 66
5 7 10 14 10 17 0 3 55 90 78 122 35 50 191 361 196 394 1 3 11 30 23 60 41
101 93 289 118 420 3 14 7 36 10 50 3 14 7 43 10 65 2 22 6 49 9 60 11 54 19
206 18 345 -1 186 -1 172 -14 290 -14 126 -16 137 -33 220 -3 14 -8 38 -11 54
-18 100 -71 210 -130 268 -31 32 -82 55 -85 39z"/>
<path d="M2102 4593 c-37 -53 -109 -180 -149 -264 -109 -228 -168 -442 -199
-719 -7 -67 -8 -344 -1 -385 3 -16 9 -59 13 -95 4 -36 8 -67 9 -70 1 -3 5 -25
9 -50 12 -63 13 -67 31 -140 21 -83 55 -184 95 -285 36 -92 131 -288 143 -293
4 -2 7 -12 7 -23 0 -10 3 -19 8 -19 4 0 20 -24 36 -53 17 -28 34 -56 38 -62 5
-5 34 -46 66 -91 209 -296 429 -472 802 -642 104 -47 319 -118 420 -138 14 -2
48 -9 75 -15 111 -23 335 -45 322 -32 -3 3 -48 24 -100 48 -135 60 -396 213
-405 236 -2 5 -8 9 -13 9 -23 0 -236 176 -332 275 -62 63 -179 199 -237 275
-19 25 -37 47 -40 50 -4 3 -36 46 -73 95 -37 50 -76 101 -87 115 -35 43 -225
330 -258 390 -54 96 -155 309 -180 380 -35 97 -82 253 -87 290 -2 14 -6 32 -8
40 -4 17 -15 71 -22 115 -22 136 -23 454 -1 564 3 12 8 43 10 67 11 89 88 358
123 427 7 15 11 27 9 27 -3 0 -13 -12 -24 -27z"/>
<path d="M7618 4478 c-24 -20 -29 -46 -12 -63 20 -19 48 -19 65 1 11 13 11 20
-1 42 -18 31 -31 36 -52 20z"/>
<path d="M345 4319 c-46 -56 -13 -129 59 -129 63 1 97 56 66 108 -37 60 -85
68 -125 21z"/>
<path d="M17 4179 c-9 -5 -17 -18 -17 -28 0 -19 30 -51 48 -51 17 0 41 40 34
59 -11 30 -34 38 -65 20z"/>
<path d="M730 4145 c-13 -16 -4 -55 13 -55 30 1 53 40 34 59 -15 15 -32 14
-47 -4z"/>
<path d="M7336 4003 c-10 -25 -7 -41 11 -47 24 -10 51 20 37 41 -13 21 -41 25
-48 6z"/>
<path d="M7607 3815 c-18 -13 -18 -14 3 -35 20 -20 24 -20 37 -7 9 9 13 23 8
36 -7 24 -22 26 -48 6z"/>
<path d="M292 3758 c-13 -18 4 -62 20 -52 36 20 39 26 22 45 -20 22 -28 23
-42 7z"/>
<path d="M26 3702 c-11 -11 -6 -50 7 -55 22 -8 39 8 35 33 -3 22 -29 35 -42
22z"/>
<path d="M7332 3684 c-42 -29 -23 -91 34 -108 17 -5 28 1 48 25 27 32 26 39
-7 77 -24 26 -44 28 -75 6z"/>
<path d="M566 3602 c-4 -7 -9 -20 -11 -29 -16 -78 -82 -149 -165 -179 -56 -20
-56 -36 2 -55 86 -28 144 -91 163 -176 11 -52 21 -47 46 19 29 78 79 130 147
154 51 18 60 31 31 45 -8 4 -31 15 -53 25 -38 19 -115 97 -117 118 -2 27 -36
89 -43 78z"/>
<path d="M6890 3225 c-16 -20 -6 -45 19 -45 25 0 34 14 26 40 -8 24 -28 26
-45 5z"/>
<path d="M7113 3191 l-22 -18 27 -32 27 -32 28 26 c32 31 33 35 7 58 -25 21
-39 21 -67 -2z"/>
<path d="M95 3054 c-24 -25 -15 -58 17 -62 36 -4 53 26 32 56 -18 26 -27 27
-49 6z"/>
<path d="M7461 3008 c-22 -53 -59 -96 -96 -114 -19 -9 -35 -19 -35 -23 0 -3
21 -19 47 -36 30 -19 55 -47 72 -77 14 -27 28 -48 32 -48 4 0 12 14 20 31 17
43 55 87 92 106 l31 16 -25 19 c-49 38 -76 69 -98 113 -12 25 -23 45 -24 45
-1 0 -8 -15 -16 -32z"/>
<path d="M2913 2997 c-8 -12 -9 -17 -12 -38 0 -6 -8 -3 -17 5 -21 21 -27 20
-15 -3 6 -10 7 -22 3 -26 -4 -5 1 -5 11 -2 10 4 23 7 28 7 5 0 9 7 9 15 0 9 7
18 15 21 8 4 15 10 15 14 0 14 -29 20 -37 7z"/>
<path d="M3050 2950 c0 -13 32 -28 48 -23 6 3 12 0 12 -6 0 -6 5 -11 10 -11 6
0 10 9 10 21 0 18 -4 20 -30 14 -19 -4 -30 -3 -30 4 0 6 -4 11 -10 11 -5 0
-10 -4 -10 -10z"/>
<path d="M2835 2940 c3 -5 8 -10 11 -10 2 0 4 5 4 10 0 6 -5 10 -11 10 -5 0
-7 -4 -4 -10z"/>
<path d="M2990 2901 c0 -5 7 -15 17 -22 15 -13 15 -12 4 9 -12 23 -21 28 -21
13z"/>
<path d="M3090 2891 c0 -18 4 -19 39 -12 7 2 -22 31 -30 31 -5 0 -9 -9 -9 -19z"/>
<path d="M3086 2845 c4 -8 8 -15 10 -15 2 0 4 7 4 15 0 8 -4 15 -10 15 -5 0
-7 -7 -4 -15z"/>
<path d="M3270 2835 c0 -8 5 -15 10 -15 6 0 10 7 10 15 0 8 -4 15 -10 15 -5 0
-10 -7 -10 -15z"/>
<path d="M3165 2780 c3 -5 8 -10 11 -10 2 0 4 5 4 10 0 6 -5 10 -11 10 -5 0
-7 -4 -4 -10z"/>
<path d="M3497 2776 c-16 -12 -24 -36 -12 -36 3 0 15 9 26 19 24 22 12 35 -14
17z"/>
<path d="M3350 2767 c0 -9 4 -18 9 -21 5 -4 8 1 7 9 -3 21 -16 31 -16 12z"/>
<path d="M3679 2775 c-1 -5 -1 -14 0 -19 1 -5 -7 -6 -18 -3 -20 5 -20 4 -3
-19 9 -13 20 -24 23 -24 13 0 18 30 9 52 -5 13 -10 19 -11 13z"/>
<path d="M822 2741 c-21 -13 -11 -66 12 -66 26 0 44 30 30 52 -13 21 -25 25
-42 14z"/>
<path d="M7092 2738 c-16 -16 -15 -33 2 -47 21 -18 50 14 36 40 -12 22 -21 24
-38 7z"/>
<path d="M3580 2710 c0 -6 7 -10 15 -10 8 0 15 2 15 4 0 2 -7 6 -15 10 -8 3
-15 1 -15 -4z"/>
<path d="M3700 2711 c0 -5 5 -13 10 -16 6 -3 10 -2 10 4 0 5 -4 13 -10 16 -5
3 -10 2 -10 -4z"/>
<path d="M3606 2675 c-3 -8 -1 -15 4 -15 13 0 22 18 11 24 -5 3 -11 -1 -15 -9z"/>
<path d="M3675 2671 c-3 -5 -1 -12 5 -16 5 -3 10 1 10 9 0 18 -6 21 -15 7z"/>
<path d="M4000 2650 c0 -6 -4 -8 -10 -5 -5 3 -10 1 -10 -4 0 -6 12 -11 26 -11
15 0 24 5 22 12 -6 16 -28 23 -28 8z"/>
<path d="M4041 2648 c1 -23 15 -52 21 -42 3 5 2 19 -3 32 -9 24 -19 30 -18 10z"/>
<path d="M4110 2638 c0 -6 -7 -20 -17 -30 -15 -17 -15 -18 0 -18 10 0 17 -5
17 -12 0 -6 3 -8 6 -5 10 10 12 77 2 77 -4 0 -8 -5 -8 -12z"/>
<path d="M3891 2624 c0 -11 3 -14 6 -6 3 7 2 16 -1 19 -3 4 -6 -2 -5 -13z"/>
<path d="M3950 2626 c0 -9 5 -16 10 -16 6 0 10 4 10 9 0 6 -4 13 -10 16 -5 3
-10 -1 -10 -9z"/>
<path d="M285 2592 c-33 -33 -36 -77 -9 -120 37 -57 129 -49 158 13 21 43 13
77 -25 110 -39 32 -90 31 -124 -3z"/>
<path d="M4010 2610 c-9 -6 -10 -10 -3 -10 6 0 15 5 18 10 8 12 4 12 -15 0z"/>
<path d="M4185 2590 c-3 -5 1 -10 10 -10 9 0 13 5 10 10 -3 6 -8 10 -10 10 -2
0 -7 -4 -10 -10z"/>
<path d="M4385 2591 c-6 -11 9 -23 19 -14 9 9 7 23 -3 23 -6 0 -12 -4 -16 -9z"/>
<path d="M4005 2580 c-3 -5 -1 -10 4 -10 6 0 11 5 11 10 0 6 -2 10 -4 10 -3 0
-8 -4 -11 -10z"/>
<path d="M4251 2576 c-16 -19 -11 -29 8 -17 7 5 12 14 9 21 -3 9 -8 7 -17 -4z"/>
<path d="M4040 2570 c0 -5 5 -10 11 -10 5 0 7 5 4 10 -3 6 -8 10 -11 10 -2 0
-4 -4 -4 -10z"/>
<path d="M4340 2562 c0 -13 7 -25 15 -29 26 -9 28 4 6 28 l-21 23 0 -22z"/>
<path d="M4075 2560 c3 -5 8 -10 11 -10 2 0 4 5 4 10 0 6 -5 10 -11 10 -5 0
-7 -4 -4 -10z"/>
<path d="M4277 2553 c-10 -9 -9 -23 1 -23 5 0 9 7 9 15 0 17 -1 18 -10 8z"/>
<path d="M4396 2545 c-3 -8 -1 -15 4 -15 6 0 10 7 10 15 0 8 -2 15 -4 15 -2 0
-6 -7 -10 -15z"/>
<path d="M4492 2520 c-7 -11 -8 -20 -3 -20 9 0 24 30 18 36 -1 2 -8 -6 -15
-16z"/>
<path d="M6528 2469 c-41 -23 -3 -108 42 -94 35 11 43 69 12 93 -19 14 -31 15
-54 1z"/>
<path d="M6938 2374 c-4 -6 -12 -39 -18 -75 -22 -137 -71 -243 -140 -301 -36
-31 -135 -73 -227 -98 -24 -6 -43 -14 -43 -19 0 -4 24 -13 53 -20 153 -34 246
-96 297 -198 13 -27 25 -52 26 -58 1 -5 7 -30 14 -54 6 -25 13 -54 14 -65 7
-52 19 -96 26 -96 4 0 10 19 14 43 28 182 72 274 158 338 42 30 114 68 140 73
16 3 98 25 117 32 15 5 10 14 -11 18 -7 2 -20 5 -28 9 -8 3 -37 11 -65 17
-114 29 -208 99 -251 189 -22 45 -21 40 -40 136 -25 126 -29 141 -36 129z"/>
<path d="M1110 2342 l-23 -19 23 -23 c22 -22 22 -22 42 -2 17 17 18 22 7 41
-17 26 -21 26 -49 3z"/>
<path d="M875 2209 c-4 -5 -8 -39 -11 -76 -4 -78 -10 -99 -36 -136 l-20 -28
37 -54 c24 -34 42 -52 51 -48 8 3 14 8 14 13 0 4 14 21 30 38 33 35 37 54 16
72 -26 21 -41 86 -45 191 -1 27 -25 46 -36 28z"/>
<path d="M5005 2010 c-4 -6 -11 -8 -16 -5 -5 4 -9 2 -9 -4 0 -15 18 -23 25
-11 4 6 11 7 17 4 6 -4 8 -2 4 4 -3 5 0 13 6 15 8 4 7 6 -4 6 -9 1 -20 -4 -23
-9z"/>
<path d="M5069 2009 c-10 -6 -7 -9 14 -9 29 0 35 5 14 13 -8 3 -20 1 -28 -4z"/>
<path d="M600 1985 l-24 -25 29 -30 c36 -37 44 -37 79 -1 l29 30 -29 25 c-36
31 -52 31 -84 1z"/>
<path d="M1116 1881 c-31 -35 11 -76 45 -45 13 12 16 21 9 34 -14 26 -36 31
-54 11z"/>
<path d="M6190 1785 c-14 -17 -4 -55 14 -55 19 0 46 34 38 46 -12 18 -40 23
-52 9z"/>
<path d="M873 1773 c-10 -20 -9 -70 0 -79 3 -4 13 -4 22 0 12 4 15 17 13 48
-3 44 -21 61 -35 31z"/>
<path d="M1477 1663 c-29 -33 -31 -68 -5 -96 55 -61 138 -17 118 63 -11 45
-83 66 -113 33z"/>
<path d="M1132 1433 c-12 -24 -4 -43 17 -43 27 0 42 20 30 42 -12 23 -36 23
-47 1z"/>
<path d="M5825 1400 c-9 -16 -13 -30 -11 -30 3 0 -3 -19 -12 -42 -10 -24 -16
-52 -14 -63 6 -32 35 -108 49 -129 11 -18 15 -15 39 40 14 32 26 75 27 94 0
39 -41 160 -54 160 -5 0 -15 -13 -24 -30z"/>
<path d="M6410 1287 c0 -29 7 -37 26 -30 19 7 18 39 -2 47 -23 9 -24 8 -24
-17z"/>
<path d="M766 1228 c-13 -19 -14 -25 -2 -43 15 -23 35 -29 54 -16 20 12 22 44
4 64 -20 23 -38 22 -56 -5z"/>
<path d="M1940 1216 c-16 -20 -9 -56 12 -70 14 -8 22 -6 40 11 20 20 20 25 8
48 -15 28 -41 33 -60 11z"/>
<path d="M2342 1053 c-24 -9 -40 -56 -30 -90 9 -34 34 -47 73 -39 11 3 23 5
26 5 8 1 25 44 23 59 -1 6 -2 18 -3 26 -1 11 -60 48 -73 45 -1 0 -9 -3 -16 -6z"/>
<path d="M6072 1018 c-19 -19 -14 -46 10 -54 32 -10 54 23 31 48 -19 21 -25
22 -41 6z"/>
<path d="M2938 950 c-75 -59 -35 -180 59 -180 64 0 111 59 99 122 -10 52 -29
68 -82 74 -41 5 -54 2 -76 -16z"/>
<path d="M1508 874 c-8 -17 -8 -27 1 -38 15 -18 48 -10 54 14 11 42 -37 64
-55 24z"/>
<path d="M4899 869 c-7 -13 -27 -37 -45 -52 l-32 -28 50 -50 c47 -47 51 -49
64 -32 7 10 14 21 14 25 0 4 14 15 30 25 17 9 30 20 30 23 0 3 -22 30 -49 59
-49 53 -49 53 -62 30z"/>
<path d="M2716 665 c-26 -26 3 -62 39 -49 20 8 19 50 -1 58 -21 8 -20 8 -38
-9z"/>
<path d="M3810 660 c-46 -46 -3 -115 59 -95 23 7 41 47 34 73 -4 18 -41 42
-63 42 -6 0 -19 -9 -30 -20z"/>
<path d="M2178 643 c-33 -8 -12 -83 22 -83 14 0 40 30 40 47 0 14 -28 44 -40
42 -3 -1 -13 -3 -22 -6z"/>
<path d="M5330 610 c-26 -26 -25 -58 2 -81 27 -24 50 -24 71 -1 24 27 21 58
-9 81 -33 26 -39 26 -64 1z"/>
<path d="M5894 576 c-3 -8 -4 -25 -2 -38 2 -17 10 -23 31 -24 36 -1 52 25 31
54 -17 25 -52 29 -60 8z"/>
<path d="M3303 520 c-63 -25 -51 -120 16 -120 22 0 71 40 71 59 0 12 -49 71
-58 70 -4 0 -17 -4 -29 -9z"/>
<path d="M4422 476 c-12 -26 7 -59 29 -51 21 8 38 40 30 54 -14 22 -48 21 -59
-3z"/>
<path d="M4344 178 c-3 -12 0 -26 8 -34 12 -12 17 -12 36 1 17 13 19 19 11 33
-16 25 -47 25 -55 0z"/>
<path d="M3490 125 c-15 -19 6 -57 28 -53 26 5 28 54 3 61 -11 3 -25 -1 -31
-8z"/>
</g>
</svg>
